<?xml version="1.0" standalone="no"?>
<!DOCTYPE svg PUBLIC "-//W3C//DTD SVG 20010904//EN"
 "http://www.w3.org/TR/2001/REC-SVG-20010904/DTD/svg10.dtd">
<svg version="1.0" xmlns="http://www.w3.org/2000/svg"
 width="3000.000000pt" height="1024.000000pt" viewBox="0 0 1792.000000 1024.000000"
 preserveAspectRatio="xMidYMid meet">

<g transform="translate(0.000000,1024.000000) scale(0.100000,-0.100000)"
fill="#FFEB55" stroke="none">
<path d="M12774 9812 c-59 -28 -89 -81 -89 -157 1 -170 168 -246 293 -132 l23
21 -23 13 c-31 17 -63 16 -78 -2 -7 -8 -29 -15 -50 -15 -31 0 -44 7 -69 35
-56 64 -38 158 36 186 41 15 82 11 95 -11 17 -26 30 -25 57 4 l22 24 -37 23
c-51 31 -126 36 -180 11z"/>
<path d="M13070 9651 c0 -99 4 -182 8 -185 17 -11 160 15 202 37 60 31 85 75
85 152 0 121 -65 174 -212 175 l-83 0 0 -179z m196 92 c34 -22 49 -83 31 -125
-21 -50 -51 -70 -107 -76 l-50 -5 0 118 0 118 51 -7 c28 -4 62 -14 75 -23z"/>
<path d="M13442 9651 l3 -176 33 -3 32 -3 0 116 c0 85 3 116 12 113 6 -2 32
-34 58 -71 67 -96 117 -149 137 -145 16 3 18 20 21 169 2 166 2 167 -20 173
-13 3 -26 6 -30 6 -4 0 -9 -50 -10 -111 l-3 -111 -41 56 c-70 96 -140 164
-169 164 l-25 0 2 -177z"/>
<path d="M4313 9776 c-39 -19 -57 -34 -72 -65 -26 -50 -27 -122 -2 -177 43
-95 182 -122 251 -49 23 25 23 25 4 40 -25 19 -27 19 -67 -5 -27 -16 -40 -18
-58 -11 -58 24 -89 71 -89 131 1 69 43 110 115 110 22 0 38 -6 41 -15 4 -8 17
-15 30 -15 40 0 31 36 -16 60 -51 26 -74 25 -137 -4z"/>
<path d="M4600 9614 l5 -189 50 3 c144 8 225 80 225 198 0 114 -55 162 -197
171 l-88 6 5 -189z m178 112 c49 -25 66 -100 36 -157 -17 -33 -81 -68 -126
-69 -33 0 -36 9 -42 133 -6 117 -5 121 55 114 26 -3 61 -13 77 -21z"/>
<path d="M4971 9617 l-1 -178 28 3 27 3 -4 128 c-4 147 -2 149 71 68 62 -69
60 -44 -3 49 -50 74 -87 109 -98 91 -7 -11 -9 -11 -14 0 -3 8 -6 -66 -6 -164z"/>
<path d="M5210 9675 c0 -100 -2 -116 -15 -111 -20 8 -42 14 -32 9 4 -3 5 -9 2
-13 -7 -11 34 -79 59 -100 24 -19 36 2 26 47 -5 19 -4 66 1 104 6 38 9 93 7
122 -3 45 -6 52 -25 55 -23 3 -23 2 -23 -113z"/>
<path d="M7015 9726 c-104 -26 -183 -72 -265 -154 -63 -64 -82 -90 -109 -155
-17 -42 -37 -111 -44 -152 l-11 -74 -42 6 c-34 4 -45 2 -63 -18 -48 -52 -9
-112 68 -102 l36 5 13 -67 c7 -37 27 -103 44 -148 45 -118 118 -186 299 -279
l84 -43 120 0 c120 0 120 0 192 38 40 22 107 72 152 114 69 64 88 88 130 174
35 70 52 116 57 158 6 58 7 59 31 50 56 -21 103 6 103 60 0 48 -66 79 -110 51
-12 -8 -17 2 -27 58 -16 84 -46 162 -91 229 -51 79 -163 177 -250 221 -70 34
-83 37 -171 39 -53 1 -119 -4 -146 -11z m272 -118 c68 -32 173 -124 173 -152
0 -19 -45 -34 -126 -40 -39 -3 -85 -9 -102 -12 l-32 -6 0 121 c0 74 4 121 10
121 5 0 40 -14 77 -32z m-347 -80 c-22 -45 -40 -90 -40 -100 0 -14 -6 -16 -32
-11 -61 12 -82 19 -85 30 -9 25 149 160 189 163 4 0 -11 -37 -32 -82z m169
-75 l1 -53 -70 0 c-38 0 -70 2 -70 5 0 8 21 44 75 130 l50 79 7 -54 c3 -30 6
-79 7 -107z m-259 -113 c20 0 21 -3 14 -72 -3 -40 -9 -76 -11 -80 -2 -5 -42
-8 -87 -8 l-83 0 8 48 c14 74 29 111 51 126 17 12 25 12 54 0 18 -8 43 -14 54
-14z m685 -3 c14 -23 55 -132 55 -149 0 -5 -39 -7 -87 -6 l-88 3 -5 74 c-3 45
-1 75 5 76 40 10 91 23 97 24 4 0 14 -9 23 -22z m-435 -92 l0 -65 -75 0 -75 0
0 38 c0 81 8 88 103 91 l47 1 0 -65z m234 43 c3 -13 6 -42 6 -65 l0 -43 -72 0
-73 0 3 59 4 60 36 4 c85 9 89 8 96 -15z m-484 -225 c0 -16 3 -51 6 -79 6 -49
6 -51 -24 -63 -16 -7 -40 -23 -53 -37 l-22 -23 -23 50 c-20 43 -54 152 -54
173 0 3 38 6 85 6 l85 0 0 -27z m258 -45 l3 -68 -71 0 c-79 0 -76 -3 -83 83
l-6 58 77 -3 77 -3 3 -67z m242 8 c0 -74 -2 -76 -91 -76 l-59 0 0 70 0 70 75
0 75 0 0 -64z m234 37 c-12 -50 -46 -138 -59 -151 -10 -11 -21 -10 -64 8 l-51
22 0 68 c0 45 4 70 13 73 6 3 47 6 90 6 l77 1 -6 -27z m-470 -209 c14 -35 1
-194 -15 -194 -5 0 -9 5 -9 12 0 6 -20 43 -44 82 -77 125 -77 116 -2 116 49 0
65 -4 70 -16z m243 -4 c26 -6 59 -19 72 -29 l24 -18 -44 -48 c-41 -44 -161
-115 -196 -115 -10 0 -13 27 -13 110 l0 110 55 0 c29 0 76 -5 102 -10z m-457
-15 c0 -24 49 -114 75 -141 36 -36 1 -32 -61 7 -99 63 -115 91 -68 128 32 25
54 27 54 6z"/>
<path d="M10605 9660 c-61 -16 -304 -107 -345 -129 -12 -7 -15 -37 -16 -172
-1 -129 -4 -164 -15 -170 -8 -4 -27 -12 -42 -18 -23 -9 -28 -16 -25 -39 3 -24
7 -27 52 -32 l49 -5 26 -81 c47 -144 106 -220 246 -314 84 -57 150 -79 236
-80 117 0 190 34 307 144 59 56 97 116 141 228 40 100 51 118 77 118 24 0 39
36 23 56 -5 6 -35 19 -67 28 -32 9 -85 32 -118 52 -95 58 -124 70 -213 93
-180 45 -319 19 -506 -95 -82 -50 -105 -54 -105 -22 0 36 89 112 182 156 123
59 199 76 310 70 117 -7 203 -36 328 -111 51 -32 101 -57 111 -57 23 0 30 22
36 115 6 101 -4 129 -54 145 -21 7 -72 27 -113 45 -42 18 -119 47 -173 64
-116 37 -221 41 -332 11z m266 -460 c30 -6 74 -21 99 -34 25 -13 77 -40 115
-60 39 -21 72 -42 74 -47 5 -15 -30 -89 -42 -89 -5 0 -27 18 -49 40 -154 153
-441 150 -589 -7 -28 -30 -52 -53 -53 -51 -26 52 -56 121 -56 128 0 6 10 8 23
5 22 -6 33 -1 148 63 97 55 216 73 330 52z m39 -254 c59 -29 110 -72 110 -92
0 -17 -87 -79 -146 -105 -94 -42 -247 -4 -329 81 l-26 27 42 37 c24 20 65 48
93 62 70 35 174 31 256 -10z"/>
<path d="M8840 9655 c-89 -19 -200 -68 -295 -131 -107 -70 -119 -84 -111 -130
8 -41 46 -84 74 -84 10 0 63 22 118 48 167 82 222 97 349 96 135 -1 223 -27
363 -111 80 -47 97 -54 116 -45 25 11 56 68 56 102 0 64 -264 219 -432 254
-92 19 -151 19 -238 1z"/>
<path d="M1318 9408 c-2 -124 1 -198 7 -206 18 -21 189 1 231 30 109 74 123
224 29 306 -42 37 -79 49 -182 56 l-82 6 -3 -192z m192 92 c52 -27 72 -96 45
-153 -19 -41 -66 -67 -119 -67 l-36 0 0 113 c0 63 3 117 7 121 8 8 80 -2 103
-14z"/>
<path d="M1045 9576 c-17 -7 -45 -30 -63 -50 -33 -37 -38 -63 -32 -166 4 -76
57 -140 132 -161 52 -14 110 6 157 55 32 33 33 34 13 45 -31 16 -57 13 -77 -9
-23 -26 -75 -26 -107 0 -35 27 -60 93 -52 137 5 25 18 43 47 64 47 34 77 37
102 9 23 -26 57 -26 80 0 17 19 17 21 -10 46 -15 14 -39 30 -52 35 -34 13
-103 11 -138 -5z"/>
<path d="M1701 9413 c1 -98 0 -185 -2 -193 -3 -11 6 -16 37 -18 51 -4 54 4 54
133 0 89 0 90 18 64 82 -121 181 -214 203 -192 5 5 8 92 7 193 l-3 184 -39 2
-39 1 6 -109 c4 -64 3 -107 -2 -103 -5 3 -46 52 -92 110 -75 96 -84 105 -116
105 l-33 0 1 -177z"/>
<path d="M16285 9583 c-80 -11 -201 -46 -257 -74 -186 -92 -310 -205 -406
-369 -104 -177 -148 -301 -162 -464 -16 -180 9 -293 105 -488 64 -129 97 -177
166 -245 150 -147 311 -230 511 -264 67 -11 261 -10 272 2 4 3 -8 29 -27 56
-20 30 -44 89 -61 149 -26 90 -28 109 -23 204 4 58 16 141 27 185 12 50 20
113 20 167 0 105 3 108 119 108 65 0 93 5 155 30 139 56 266 52 461 -16 65
-22 88 -36 122 -73 60 -65 65 -53 59 134 -5 173 -22 247 -90 390 -98 204 -267
386 -435 466 -109 52 -212 86 -297 99 -68 9 -199 11 -259 3z m252 -195 c33
-35 77 -88 96 -118 39 -62 100 -181 95 -185 -8 -8 -154 -25 -211 -25 l-64 0 2
193 c2 105 4 193 4 195 4 10 25 -6 78 -60z m-197 -134 l0 -187 -95 7 c-121 8
-155 15 -155 32 0 7 24 57 53 110 52 97 156 224 183 224 11 0 14 -34 14 -186z
m385 150 c45 -18 170 -101 220 -145 l34 -31 -61 -56 c-34 -31 -63 -56 -66 -55
-2 1 -19 36 -37 78 -18 41 -56 109 -84 150 -28 41 -49 75 -47 75 2 0 21 -7 41
-16z m-652 -66 c-51 -80 -93 -163 -93 -183 0 -29 -25 -19 -108 43 l-34 24 29
30 c46 49 229 165 241 153 3 -2 -14 -32 -35 -67z m1014 -246 c53 -72 115 -205
138 -297 39 -153 51 -141 -122 -137 -82 2 -149 5 -151 6 -1 2 -7 43 -13 92 -5
49 -19 123 -29 165 -11 43 -20 80 -20 82 0 3 24 19 53 35 28 17 66 42 82 56
17 14 33 25 36 26 3 0 15 -13 26 -28z m-1240 -27 c49 -24 82 -46 83 -55 0 -8
-9 -49 -21 -90 -11 -41 -23 -119 -26 -173 -5 -79 -9 -97 -20 -93 -8 4 -75 6
-149 6 l-134 0 0 38 c0 44 19 123 50 205 22 58 118 210 129 205 3 -2 43 -21
88 -43z m433 -113 l55 -7 3 -142 3 -143 -171 0 -170 0 0 58 c0 62 12 144 30
212 l11 42 92 -7 c51 -3 117 -10 147 -13z m509 -35 c13 -42 28 -128 35 -199
l6 -58 -185 0 -185 0 0 138 0 139 108 7 c59 4 125 11 147 15 47 9 60 1 74 -42z
m-904 -424 c10 -98 27 -206 36 -230 7 -18 4 -26 -14 -38 -12 -9 -50 -36 -85
-60 -34 -25 -66 -45 -71 -45 -10 0 -93 139 -121 205 -24 57 -50 157 -50 198
l0 27 149 0 150 0 6 -57z m455 -77 l0 -133 -77 -6 c-43 -3 -96 -12 -118 -20
-89 -31 -93 -31 -105 10 -13 46 -40 218 -40 256 l0 27 170 0 170 0 0 -134z m0
-318 c0 -29 3 -111 7 -182 5 -98 3 -128 -6 -125 -45 15 -267 316 -247 336 7 7
116 19 194 22 l52 1 0 -52z m-344 -30 c21 -42 101 -174 126 -211 11 -16 19
-30 17 -31 -2 -2 -36 11 -76 28 -75 34 -145 76 -201 123 l-33 28 63 47 c35 25
69 47 75 47 7 1 20 -14 29 -31z"/>
<path d="M8880 9363 c-155 -24 -370 -139 -370 -198 0 -41 43 -85 83 -85 7 0
39 18 72 40 33 22 83 49 112 60 59 22 193 41 238 34 119 -20 181 -44 260 -104
22 -16 55 -33 72 -36 28 -6 37 -2 63 26 16 18 30 38 30 45 0 26 -113 116 -194
154 -122 59 -254 82 -366 64z"/>
<path d="M13887 9294 c-4 -4 -341 -7 -749 -6 l-741 2 -42 -25 c-23 -13 -49
-35 -58 -48 -33 -51 -49 -239 -26 -320 14 -52 101 -141 154 -157 47 -15 1028
-28 1452 -20 l262 5 52 50 c77 75 89 107 89 250 0 96 -4 128 -19 160 -21 45
-54 79 -91 93 -33 13 -273 26 -283 16z m249 -125 c21 -22 27 -40 35 -105 10
-89 5 -132 -22 -186 -32 -64 -37 -65 -324 -73 -143 -4 -273 -7 -290 -7 -16 0
-267 4 -556 9 -592 9 -548 2 -589 87 -15 33 -20 62 -20 132 0 91 11 124 49
149 14 9 1000 22 1533 20 156 0 158 0 184 -26z"/>
<path d="M13975 9088 c-27 -15 -35 -28 -35 -56 0 -29 51 -82 79 -82 24 0 61
45 61 75 0 49 -63 87 -105 63z"/>
<path d="M12948 9069 c-13 -7 -18 -23 -18 -57 0 -55 17 -92 46 -103 35 -12 48
5 52 74 4 58 2 66 -19 81 -27 18 -37 19 -61 5z"/>
<path d="M13115 9064 c-18 -18 -18 -63 -1 -119 9 -33 16 -40 36 -40 19 0 26 7
31 30 11 52 9 112 -3 122 -25 19 -48 22 -63 7z"/>
<path d="M13695 9055 c-25 -24 -32 -59 -17 -81 9 -15 47 -34 66 -34 28 0 76
50 76 79 0 60 -79 83 -125 36z"/>
<path d="M12595 9063 c-35 -9 -45 -24 -45 -67 0 -53 13 -66 66 -66 40 0 43 2
58 40 20 51 20 56 -4 80 -20 20 -36 22 -75 13z"/>
<path d="M12750 9055 c-28 -33 10 -125 51 -125 39 0 68 97 37 128 -17 17 -73
15 -88 -3z"/>
<path d="M13272 9058 c-27 -27 -3 -141 33 -155 30 -11 47 20 48 93 l2 69 -35
3 c-19 2 -41 -3 -48 -10z"/>
<path d="M13442 9047 c-23 -27 -24 -65 -3 -111 35 -80 91 -44 91 58 0 35 -5
48 -19 56 -27 14 -56 13 -69 -3z"/>
<path d="M4080 9260 c-307 -6 -314 -7 -367 -77 -26 -34 -28 -44 -31 -147 -2
-64 1 -126 8 -148 13 -46 57 -98 117 -139 43 -30 45 -30 235 -39 106 -5 502
-7 879 -5 764 4 717 -1 785 73 58 63 77 129 72 252 -3 81 -9 113 -24 139 -27
46 -98 91 -148 93 -88 4 -1266 3 -1526 -2z m1532 -101 c41 -22 58 -69 58 -162
0 -95 -15 -141 -63 -185 l-24 -23 -654 1 c-360 0 -744 3 -854 6 -185 6 -202 8
-223 28 -83 74 -95 263 -21 318 24 18 60 19 810 25 431 3 786 7 789 10 8 8
161 -7 182 -18z"/>
<path d="M5185 9035 c-14 -13 -25 -36 -25 -50 0 -33 41 -75 74 -75 32 0 76 52
76 90 0 58 -80 80 -125 35z"/>
<path d="M5422 9037 c-12 -13 -22 -31 -22 -40 0 -46 67 -101 109 -90 23 6 51
50 51 81 0 11 -12 31 -26 46 -34 34 -82 35 -112 3z"/>
<path d="M4148 9029 c-26 -15 -25 -95 1 -109 36 -19 71 -12 81 16 15 38 12 62
-10 84 -22 22 -46 25 -72 9z"/>
<path d="M4470 9021 c-27 -52 -2 -131 43 -131 35 0 61 105 32 133 -22 23 -62
21 -75 -2z"/>
<path d="M3963 9020 c-19 -8 -23 -17 -23 -50 0 -35 4 -42 27 -51 29 -11 84 -3
95 15 14 21 9 84 -8 90 -22 8 -65 6 -91 -4z"/>
<path d="M4640 9011 c-14 -27 -13 -94 2 -109 18 -18 56 -14 68 7 5 11 10 34
10 51 0 44 -17 70 -45 70 -14 0 -29 -8 -35 -19z"/>
<path d="M4808 9013 c-38 -43 -27 -108 20 -120 36 -9 54 20 50 82 -3 45 -5 50
-29 53 -15 2 -32 -4 -41 -15z"/>
<path d="M4957 9012 c-27 -30 -21 -67 15 -97 l32 -27 28 31 c31 35 36 72 12
95 -21 22 -67 20 -87 -2z"/>
<path d="M4307 9013 c-3 -4 -8 -23 -12 -41 -8 -39 7 -62 41 -62 29 0 46 30 42
73 -3 28 -7 32 -35 35 -17 2 -33 -1 -36 -5z"/>
<path d="M9593 9153 c-14 -5 -17 -50 -7 -77 6 -17 40 -21 61 -8 6 4 14 19 18
33 10 42 -29 70 -72 52z"/>
<path d="M7990 9118 c0 -46 12 -60 46 -56 27 3 29 6 29 43 0 39 -1 40 -37 43
-37 3 -38 2 -38 -30z"/>
<path d="M8180 9117 c0 -43 19 -59 62 -55 31 3 33 5 33 43 l0 40 -47 3 -48 3
0 -34z"/>
<path d="M9772 9108 c2 -34 7 -44 23 -46 30 -4 55 19 58 53 2 29 0 30 -41 33
l-43 3 3 -43z"/>
<path d="M9943 9143 c-18 -7 -16 -48 3 -67 31 -31 74 -13 74 31 0 32 -41 51
-77 36z"/>
<path d="M8835 9113 c-63 -23 -133 -63 -173 -101 -48 -45 -41 -100 16 -131 20
-10 29 -9 60 7 115 62 142 73 195 84 77 16 131 1 226 -62 41 -28 79 -50 86
-50 29 0 80 84 69 114 -8 20 -113 92 -181 123 -77 36 -221 43 -298 16z"/>
<path d="M11624 9116 c-15 -40 16 -73 59 -62 23 5 27 12 27 41 0 34 -1 35 -40
35 -26 0 -43 -5 -46 -14z"/>
<path d="M11805 9120 c-4 -6 -3 -24 0 -41 6 -28 9 -30 48 -27 36 3 43 7 45 27
3 15 -3 30 -14 38 -21 15 -70 17 -79 3z"/>
<path d="M1565 9103 c-22 -1 -128 -7 -235 -12 -151 -7 -204 -13 -235 -26 l-40
-18 55 -8 c63 -10 756 -4 783 6 26 11 21 22 -15 34 -50 15 -240 30 -313 24z"/>
<path d="M3382 9050 c0 -14 2 -19 5 -12 2 6 2 18 0 25 -3 6 -5 1 -5 -13z"/>
<path d="M14872 9048 c4 -30 43 -37 51 -9 6 25 0 31 -30 31 -20 0 -24 -5 -21
-22z"/>
<path d="M2967 9053 c-4 -3 -7 -28 -7 -55 l0 -48 35 0 c35 0 35 0 35 45 0 40
-3 47 -26 55 -30 12 -29 12 -37 3z"/>
<path d="M14500 9026 c0 -9 5 -16 10 -16 6 0 10 4 10 9 0 6 -4 13 -10 16 -5 3
-10 -1 -10 -9z"/>
<path d="M645 8945 c-76 -27 -105 -86 -105 -210 0 -123 55 -196 157 -208 139
-17 554 -29 663 -19 77 7 141 7 195 1 44 -5 220 -9 392 -7 l311 3 39 31 c54
44 77 109 69 198 -13 137 -59 192 -175 208 -36 5 -390 11 -786 14 -609 3 -726
1 -760 -11z m1255 -75 c146 -6 279 -14 295 -18 34 -9 65 -59 65 -104 0 -34
-18 -119 -29 -137 -13 -21 -157 -31 -441 -29 -140 1 -374 2 -520 2 -305 1
-559 14 -579 29 -31 26 -56 154 -40 212 6 19 11 36 12 37 1 1 164 5 362 8 198
3 416 6 485 8 69 1 244 -3 390 -8z"/>
<path d="M1329 8783 c-21 -5 -30 -36 -22 -74 5 -26 10 -29 42 -29 20 0 42 5
49 12 13 13 17 74 5 81 -15 8 -58 14 -74 10z"/>
<path d="M1498 8783 c-13 -3 -18 -15 -18 -43 0 -41 11 -55 50 -64 34 -8 50 4
56 46 9 54 -25 78 -88 61z"/>
<path d="M1858 8779 c-26 -15 -25 -85 1 -99 30 -15 66 -12 84 8 20 22 22 73 5
90 -15 15 -66 15 -90 1z"/>
<path d="M2043 8779 c-7 -7 -13 -30 -13 -51 0 -32 4 -40 27 -49 40 -15 77 1
81 37 2 16 -3 37 -10 46 -17 23 -69 33 -85 17z"/>
<path d="M783 8773 c-16 -6 -17 -65 -1 -81 7 -7 31 -12 54 -12 35 0 43 4 48
23 10 38 7 65 -10 71 -18 7 -73 7 -91 -1z"/>
<path d="M952 8733 c3 -46 4 -48 41 -57 43 -11 52 -5 61 40 9 42 -13 64 -65
64 l-40 0 3 -47z"/>
<path d="M1152 8768 c-17 -17 -15 -73 2 -87 8 -7 30 -11 48 -9 30 3 33 6 36
41 2 21 -2 45 -9 53 -14 17 -61 18 -77 2z"/>
<path d="M1667 8774 c-4 -4 -7 -27 -7 -50 0 -33 5 -46 21 -54 51 -28 94 18 73
78 -7 21 -16 28 -45 30 -19 2 -38 0 -42 -4z"/>
<path d="M14702 8870 c0 -14 2 -19 5 -12 2 6 2 18 0 25 -3 6 -5 1 -5 -13z"/>
<path d="M3410 8871 c0 -5 -8 -12 -17 -14 -14 -4 -12 -5 5 -6 13 -1 22 5 22
14 0 8 -2 15 -5 15 -3 0 -5 -4 -5 -9z"/>
<path d="M2960 8755 l0 -65 35 0 35 0 0 59 c0 61 -7 71 -51 71 -17 0 -19 -8
-19 -65z"/>
<path d="M14870 8745 l0 -55 35 0 c33 0 35 2 35 33 0 59 -10 77 -41 77 -28 0
-29 -1 -29 -55z"/>
<path d="M15252 8663 c4 -39 28 -42 28 -4 0 21 -5 31 -16 31 -11 0 -14 -8 -12
-27z"/>
<path d="M3817 8597 c-48 -15 -102 -59 -124 -100 -26 -47 -26 -268 0 -316 34
-61 97 -120 141 -132 29 -8 290 -11 914 -10 958 1 896 -3 961 63 59 59 75 108
76 233 0 102 -2 113 -27 157 -33 55 -67 84 -117 98 -56 16 -1775 23 -1824 7z
m1738 -97 c70 -11 102 -38 115 -96 22 -92 8 -179 -37 -232 l-28 -34 -873 -1
-873 -2 -20 25 c-48 60 -59 96 -59 187 0 94 10 121 53 145 15 9 104 15 297 19
394 8 1354 1 1425 -11z"/>
<path d="M5193 8400 c-26 -11 -43 -40 -43 -73 0 -27 50 -87 72 -87 43 0 97 84
78 121 -9 16 -68 51 -82 48 -2 0 -13 -4 -25 -9z"/>
<path d="M5422 8380 c-31 -29 -28 -63 9 -94 39 -33 72 -33 98 0 26 33 27 76 3
97 -26 24 -83 22 -110 -3z"/>
<path d="M4143 8370 c-18 -7 -23 -17 -23 -45 0 -64 75 -113 100 -66 12 23 13
81 2 98 -10 17 -53 24 -79 13z"/>
<path d="M4475 8360 c-20 -22 -17 -89 5 -115 16 -19 44 -19 59 -1 18 21 26
103 11 121 -17 21 -54 19 -75 -5z"/>
<path d="M4640 8361 c-18 -34 -12 -109 10 -131 36 -36 70 -2 70 70 0 54 -15
80 -45 80 -14 0 -29 -8 -35 -19z"/>
<path d="M4801 8361 c-32 -59 4 -155 49 -131 24 13 32 42 28 101 -3 41 -5 44
-35 47 -23 2 -34 -2 -42 -17z"/>
<path d="M4962 8364 c-30 -21 -30 -73 1 -102 30 -28 41 -28 66 4 52 66 -1 144
-67 98z"/>
<path d="M3940 8345 c-18 -47 17 -95 70 -95 27 0 70 46 70 76 0 30 -27 44 -85
44 -39 0 -47 -3 -55 -25z"/>
<path d="M4296 8345 c-10 -27 5 -74 27 -81 27 -8 57 27 57 67 0 27 -3 29 -39
29 -25 0 -41 -5 -45 -15z"/>
<path d="M12365 8584 c-84 -46 -105 -92 -105 -239 0 -143 10 -175 73 -240 50
-50 55 -53 117 -59 186 -18 883 -26 1288 -14 481 14 474 12 522 98 23 42 25
55 24 170 0 144 -11 177 -77 236 l-40 37 -346 -7 c-259 -6 -414 -4 -616 8
-148 8 -391 17 -540 20 -237 5 -274 4 -300 -10z m720 -105 c187 -6 491 -12
675 -13 367 -1 374 -2 405 -60 14 -25 16 -51 14 -121 -4 -98 -21 -136 -69
-153 -32 -11 -1202 -10 -1460 2 -216 9 -228 13 -260 76 -16 31 -20 59 -20 134
0 88 2 97 27 126 l27 32 160 -5 c89 -3 314 -11 501 -18z"/>
<path d="M13961 8354 c-12 -15 -21 -35 -21 -46 0 -29 45 -68 79 -68 57 0 82
77 38 118 -32 30 -71 28 -96 -4z"/>
<path d="M12552 8358 c-18 -18 -15 -62 7 -89 14 -17 28 -23 57 -22 48 1 66 24
62 78 l-3 40 -55 3 c-34 2 -60 -2 -68 -10z"/>
<path d="M12750 8350 c-23 -43 14 -110 61 -110 47 0 69 79 31 113 -26 24 -79
22 -92 -3z"/>
<path d="M12952 8348 c-17 -17 -15 -89 4 -116 18 -25 46 -29 64 -7 21 26 25
99 5 118 -19 20 -56 22 -73 5z"/>
<path d="M13673 8340 c-27 -25 -28 -32 -8 -70 13 -25 22 -30 54 -30 23 0 48 8
64 20 14 11 28 16 31 11 10 -16 61 4 61 23 0 12 -17 24 -55 38 -85 31 -121 33
-147 8z"/>
<path d="M13116 8334 c-19 -18 -20 -49 -5 -92 13 -37 45 -51 66 -29 21 20 29
102 13 122 -16 20 -54 19 -74 -1z"/>
<path d="M13269 8319 c-20 -38 11 -119 46 -119 36 0 70 95 45 125 -19 23 -77
19 -91 -6z"/>
<path d="M13431 8311 c-10 -24 -10 -35 1 -57 28 -57 68 -57 96 -1 20 42 -2 81
-49 85 -32 3 -38 0 -48 -27z"/>
<path d="M14866 8545 c-3 -9 -6 -41 -6 -71 l0 -54 40 0 41 0 -3 68 -3 67 -31
3 c-22 2 -33 -2 -38 -13z"/>
<path d="M2960 8476 l0 -76 35 0 36 0 -3 73 -3 72 -32 3 -33 3 0 -75z"/>
<path d="M16838 8525 c-199 -49 -329 -188 -360 -387 -52 -337 256 -626 577
-543 156 41 281 161 330 317 74 233 -24 468 -237 572 -67 33 -167 57 -228 55
-14 0 -51 -7 -82 -14z m232 -147 c81 -27 137 -77 179 -162 45 -87 51 -164 22
-269 -12 -43 -31 -92 -44 -109 -67 -92 -222 -152 -335 -129 -82 16 -175 65
-217 113 -46 55 -65 121 -65 229 0 141 39 223 138 291 90 62 208 75 322 36z"/>
<path d="M16877 8275 c-91 -32 -151 -117 -163 -231 -8 -73 14 -159 48 -191 54
-51 164 -69 213 -37 21 14 30 14 55 4 39 -16 68 -8 108 31 42 41 41 64 -4 91
-27 16 -34 26 -30 42 14 58 27 187 24 236 l-3 55 -41 3 c-35 3 -42 0 -53 -24
l-12 -27 -27 25 c-35 33 -68 40 -115 23z m95 -126 c31 -30 31 -31 25 -110 -7
-93 -18 -116 -55 -126 -73 -18 -112 20 -112 110 0 65 17 105 56 136 36 28 50
27 86 -10z"/>
<path d="M10675 8459 c-42 -37 -46 -77 -12 -123 l22 -31 -7 -350 -7 -350 27
-23 c18 -15 37 -22 57 -20 l30 3 2 373 2 373 25 30 c28 33 31 45 17 82 -27 71
-97 87 -156 36z"/>
<path d="M1110 8460 c-58 -4 -193 -5 -301 -2 -191 5 -196 5 -217 -16 -25 -25
-29 -64 -7 -82 11 -9 27 -9 72 1 44 9 238 10 830 5 l772 -7 21 33 c11 18 19
39 18 45 -2 10 -94 14 -388 18 -212 2 -455 6 -540 9 -85 2 -202 0 -260 -4z"/>
<path d="M15255 8452 c-5 -4 -11 -17 -12 -29 -2 -19 2 -23 23 -23 22 0 24 3
15 14 -8 10 -9 16 -1 21 6 3 8 11 5 16 -7 11 -16 11 -30 1z"/>
<path d="M2571 8424 c0 -11 3 -14 6 -6 3 7 2 16 -1 19 -3 4 -6 -2 -5 -13z"/>
<path d="M7091 8391 c-42 -40 -43 -90 -2 -132 l29 -29 -10 -102 c-5 -57 -7
-164 -3 -239 5 -113 4 -139 -8 -151 -19 -19 -232 -28 -642 -28 -357 0 -391 -8
-335 -80 l19 -25 486 -1 c486 -1 486 -1 508 -23 20 -20 22 -32 25 -179 1 -86
4 -167 7 -178 7 -29 48 -38 85 -19 35 18 35 20 21 235 -8 133 -18 163 -69 218
l-30 32 20 37 c18 36 19 51 13 233 -3 107 -10 212 -14 232 -8 33 -6 39 21 65
40 37 50 65 37 102 -23 65 -105 82 -158 32z"/>
<path d="M8775 8314 c-294 -41 -581 -187 -796 -407 -164 -167 -288 -383 -338
-592 -16 -66 -33 -138 -38 -159 l-8 -39 -95 -21 c-295 -67 -592 -284 -739
-542 -226 -397 -169 -887 143 -1212 182 -191 458 -331 698 -357 l68 -7 -6 -83
c-5 -57 -3 -84 5 -89 8 -5 11 -68 11 -206 0 -192 -1 -200 -23 -225 -27 -32 38
-30 -745 -27 l-634 2 3 423 c2 321 0 427 -9 445 -10 17 -10 31 -2 60 8 26 10
284 8 844 l-3 806 -25 27 c-42 45 -95 66 -198 76 -70 7 -103 7 -124 -2 -49
-20 -50 -94 -2 -125 24 -16 29 -16 81 0 68 22 115 15 143 -21 20 -25 20 -35
20 -814 0 -691 -2 -789 -15 -789 -8 0 -29 -13 -47 -28 -50 -45 -44 -83 21
-144 l52 -49 -6 -272 c-8 -359 -9 -374 -44 -391 -57 -30 -67 -107 -22 -158
l29 -33 49 15 c40 12 173 16 768 20 717 5 720 5 750 27 87 62 95 90 95 328 0
181 1 193 21 216 21 24 22 59 3 134 l-6 25 156 0 c110 0 156 -3 156 -11 0 -7
-5 -40 -12 -75 -10 -56 -9 -66 5 -82 15 -16 17 -45 17 -203 0 -127 -4 -192
-13 -209 -11 -21 -30 -37 -91 -75 -9 -5 -17 -21 -18 -35 -3 -23 0 -25 48 -28
43 -2 57 2 99 30 85 57 90 72 92 305 2 192 3 203 24 224 22 22 22 39 4 127
l-7 32 159 0 c88 0 175 3 192 6 l32 7 -7 -89 c-5 -71 -4 -92 8 -101 11 -9 12
-30 7 -100 -6 -74 -13 -318 -10 -360 2 -22 40 -14 73 16 39 34 46 78 47 286 1
86 6 157 15 185 7 26 11 69 9 100 l-5 55 148 2 149 3 1 -93 c6 -758 16 -1334
24 -1382 11 -71 49 -129 100 -156 31 -17 61 -19 300 -19 146 0 274 -3 286 -6
45 -12 47 -36 51 -773 3 -584 1 -697 -11 -710 -27 -32 -28 -57 -1 -89 38 -45
77 -50 126 -16 l41 28 24 -32 c33 -42 68 -42 112 -1 43 40 43 78 1 113 -39 33
-59 33 -93 -3 l-28 -29 -34 38 -34 37 1 689 c0 438 -4 701 -10 723 -6 19 -23
48 -38 64 -56 58 -66 60 -346 65 -244 4 -260 6 -290 26 -18 12 -37 33 -43 46
-8 18 -13 216 -17 662 -4 621 -4 638 15 655 17 15 19 26 12 92 l-7 74 54 -6
c30 -4 161 -7 292 -7 l238 0 -8 -62 c-4 -35 -6 -72 -4 -83 1 -11 6 -258 9
-550 l7 -530 28 -48 c29 -49 77 -87 110 -87 25 0 22 56 -4 100 -21 34 -22 41
-21 562 1 514 2 528 21 555 19 26 20 32 7 86 l-13 57 159 0 160 0 -5 -22 c-18
-73 -19 -119 -4 -136 12 -14 16 -57 19 -222 4 -225 9 -244 69 -294 68 -58 42
-56 793 -55 737 0 758 1 764 47 2 13 -1 28 -6 35 -5 7 -18 41 -28 76 -15 56
-53 111 -76 111 -10 0 -20 -38 -27 -100 l-6 -55 -644 -3 c-633 -2 -644 -2
-677 18 -19 12 -37 34 -43 53 -6 18 -11 110 -12 205 -1 147 1 175 15 191 19
21 20 49 4 102 -6 22 -9 41 -7 43 2 3 68 10 146 15 175 14 274 41 443 122 243
117 408 281 515 512 64 139 80 221 79 412 -1 193 -14 261 -82 414 -123 280
-389 503 -647 543 l-74 11 -26 76 c-53 150 -132 251 -276 354 -113 80 -224
120 -371 133 -74 6 -77 8 -83 34 -9 39 -105 189 -175 274 -175 210 -439 376
-690 431 -72 16 -320 28 -385 19z m362 -299 c300 -76 550 -298 666 -590 19
-50 38 -108 42 -128 4 -21 11 -39 15 -42 4 -3 30 2 56 10 64 19 211 19 279 0
167 -49 314 -238 350 -449 8 -49 17 -92 21 -95 3 -3 60 -6 127 -7 98 -1 134
-5 181 -23 104 -37 188 -91 261 -166 83 -85 136 -171 172 -280 24 -71 27 -95
28 -220 0 -150 -6 -178 -67 -314 -111 -249 -400 -445 -693 -472 -58 -6 -713
-8 -1550 -7 l-1450 3 -70 24 c-82 27 -225 98 -275 136 -61 45 -171 158 -216
222 -92 128 -134 264 -134 435 0 129 16 195 79 323 82 165 216 294 396 381
127 62 223 84 360 84 83 0 116 4 124 14 6 7 16 72 21 144 12 160 21 206 59
315 40 116 87 204 166 308 78 105 153 175 263 246 259 170 514 217 789 148z"/>
<path d="M8795 7860 c-339 -54 -655 -348 -745 -694 -30 -120 -25 -155 27 -170
27 -8 42 18 68 114 24 91 105 252 166 334 70 91 174 176 284 231 107 53 183
72 340 85 65 5 120 11 122 14 11 10 -10 67 -28 76 -27 15 -164 20 -234 10z"/>
<path d="M9075 7105 c-96 -70 -324 -145 -489 -160 l-79 -8 6 -166 c8 -222 45
-435 102 -586 34 -92 138 -264 201 -334 55 -61 205 -168 296 -212 l47 -22 73
32 c192 83 373 282 471 514 37 88 83 271 96 379 6 46 11 152 13 236 2 176 4
172 -82 172 -141 1 -416 91 -545 179 -16 12 -34 21 -40 20 -5 0 -37 -20 -70
-44z m165 -325 c62 -40 109 -90 120 -131 16 -54 12 -134 -10 -189 l-20 -50 38
-18 37 -17 7 -190 c3 -105 4 -198 1 -208 -5 -17 -18 -18 -251 -12 -208 6 -249
10 -259 23 -9 11 -13 60 -13 161 0 184 6 219 36 233 28 13 31 40 9 91 -17 42
-20 143 -4 184 17 46 70 93 144 130 79 38 95 37 165 -7z"/>
<path d="M9094 6685 c-55 -33 -74 -64 -74 -122 0 -85 53 -147 142 -167 25 -6
30 -1 67 68 23 40 41 86 41 102 0 55 -74 144 -120 144 -8 0 -34 -11 -56 -25z"/>
<path d="M9122 6268 c-16 -16 -15 -126 1 -158 15 -29 48 -37 67 -16 20 25 9
154 -15 172 -23 17 -37 18 -53 2z"/>
<path d="M7475 6632 c-154 -61 -305 -200 -373 -344 -50 -103 -60 -142 -68
-243 -7 -85 -3 -95 43 -109 29 -9 40 13 58 112 7 42 23 103 35 135 67 178 258
342 434 371 70 12 71 13 74 45 2 18 -2 39 -9 47 -20 24 -114 17 -194 -14z"/>
<path d="M14862 8223 l3 -78 41 -3 42 -3 -5 68 c-6 91 -7 93 -48 93 l-36 0 3
-77z"/>
<path d="M2956 8215 c-4 -36 -4 -70 -1 -75 4 -6 24 -10 46 -10 l40 0 -3 75 -3
75 -36 0 -36 0 -7 -65z"/>
<path d="M850 8260 c-25 -5 -76 -9 -113 -9 -68 -1 -68 -1 -123 -52 -62 -60
-74 -91 -74 -200 0 -89 24 -145 82 -192 32 -26 49 -31 125 -38 104 -10 1277
-10 1409 -1 105 8 148 30 186 97 18 32 22 55 22 115 -1 127 -27 170 -141 237
-45 26 -57 28 -203 35 -253 11 -1121 17 -1170 8z m987 -125 c198 -3 344 -10
362 -16 41 -14 61 -55 61 -121 -1 -77 -29 -134 -72 -144 -52 -12 -1448 -8
-1480 5 -44 17 -62 64 -63 157 0 124 -2 123 209 127 177 3 414 1 983 -8z"/>
<path d="M970 8040 c-51 -13 -15 -100 41 -100 22 0 30 6 35 24 15 61 -16 91
-76 76z"/>
<path d="M1496 8037 c-21 -16 -24 -60 -6 -82 13 -15 75 -21 83 -7 17 30 16 63
-3 82 -23 23 -49 26 -74 7z"/>
<path d="M1868 8040 c-12 -7 -18 -23 -18 -45 0 -75 92 -83 106 -10 3 20 2 41
-3 46 -14 14 -67 20 -85 9z"/>
<path d="M2032 8038 c-16 -16 -15 -73 1 -87 23 -18 71 -23 89 -9 28 22 33 63
9 87 -23 23 -80 28 -99 9z"/>
<path d="M775 8029 c-4 -6 -4 -26 -1 -44 7 -38 30 -50 76 -40 22 5 30 14 35
36 4 18 2 36 -5 44 -14 17 -95 20 -105 4z"/>
<path d="M1133 8033 c-17 -6 -16 -63 1 -86 10 -13 24 -17 47 -15 29 3 34 8 41
38 11 55 2 70 -40 69 -20 0 -43 -3 -49 -6z"/>
<path d="M1312 8028 c-29 -29 -4 -98 36 -98 31 0 62 30 62 59 0 35 -17 51 -55
51 -17 0 -36 -5 -43 -12z"/>
<path d="M1657 8033 c-24 -23 6 -101 41 -110 34 -8 55 7 64 48 6 28 3 37 -13
52 -21 17 -79 24 -92 10z"/>
<path d="M14854 8031 c-20 -12 -37 -34 -44 -56 -11 -33 -10 -40 7 -64 11 -14
36 -34 56 -44 36 -18 38 -18 74 0 68 33 80 91 30 148 -30 35 -82 42 -123 16z"/>
<path d="M2924 8006 c-39 -39 -42 -65 -14 -111 42 -69 132 -67 173 3 24 40 17
74 -23 113 -41 42 -91 40 -136 -5z"/>
<path d="M15250 7875 c0 -22 22 -40 34 -28 13 14 5 41 -14 46 -16 4 -20 0 -20
-18z"/>
<path d="M12365 7821 c-41 -25 -82 -70 -94 -104 -14 -36 -14 -220 -1 -268 12
-42 79 -123 120 -144 23 -12 160 -15 831 -18 442 -2 836 -1 876 3 57 6 80 13
109 35 52 40 84 115 91 218 8 120 -8 177 -66 237 l-46 47 -259 7 c-143 3 -545
6 -895 6 -604 0 -638 -1 -666 -19z m1764 -96 c82 -42 83 -247 1 -320 -22 -20
-39 -20 -845 -23 -927 -4 -855 -10 -895 74 -19 38 -21 58 -18 140 3 91 5 97
31 120 l28 24 835 0 c711 0 839 -2 863 -15z"/>
<path d="M13962 7617 c-29 -30 -28 -49 4 -86 45 -54 117 -30 117 39 0 65 -76
95 -121 47z"/>
<path d="M12570 7610 c-26 -26 -26 -81 -2 -103 23 -21 76 -22 96 -1 20 20 20
73 0 102 -19 28 -67 29 -94 2z"/>
<path d="M12767 7612 c-25 -28 -21 -78 8 -107 13 -14 28 -25 33 -25 18 0 43
38 49 74 10 63 -51 102 -90 58z"/>
<path d="M12949 7614 c-17 -20 -16 -88 1 -109 21 -25 58 -18 75 15 20 39 19
66 -5 90 -24 24 -53 26 -71 4z"/>
<path d="M13272 7617 c-40 -47 -8 -137 49 -137 15 0 39 57 39 94 0 25 -6 38
-19 46 -27 14 -56 13 -69 -3z"/>
<path d="M13438 7613 c-25 -29 -27 -59 -7 -93 26 -42 45 -47 75 -20 32 31 34
92 2 114 -29 21 -51 20 -70 -1z"/>
<path d="M13793 7623 c-18 -7 -16 -78 3 -97 21 -22 61 -20 74 3 31 59 -18 118
-77 94z"/>
<path d="M13107 7614 c-4 -4 -7 -26 -7 -48 0 -44 22 -86 45 -86 25 0 46 45 43
92 -3 41 -4 43 -38 46 -20 2 -39 0 -43 -4z"/>
<path d="M13653 7608 c-21 -27 -23 -51 -8 -75 22 -33 73 -29 94 8 13 24 13 29
-2 53 -19 28 -67 36 -84 14z"/>
<path d="M3786 7812 c-81 -34 -106 -88 -106 -227 0 -67 5 -118 14 -139 19 -46
71 -102 123 -132 42 -25 55 -27 311 -41 207 -11 367 -13 712 -7 245 4 522 8
615 9 103 1 179 7 192 13 26 14 95 96 118 142 23 43 32 187 16 247 -15 53 -52
98 -104 125 -41 20 -50 21 -951 22 -723 1 -915 -2 -940 -12z m1815 -87 c51
-27 69 -69 69 -163 0 -87 -17 -138 -56 -174 -36 -32 -908 -39 -1554 -13 -208
9 -205 7 -248 90 -21 39 -26 64 -26 115 0 73 12 102 51 128 25 16 80 17 683
22 360 3 744 6 853 8 163 2 203 -1 228 -13z"/>
<path d="M5182 7617 c-26 -27 -27 -48 -8 -86 21 -40 42 -54 71 -47 30 8 65 60
65 98 0 55 -87 79 -128 35z"/>
<path d="M5415 7620 c-16 -17 -16 -25 -5 -67 15 -56 41 -83 81 -83 22 0 32 6
39 26 17 43 11 81 -16 113 -30 37 -72 41 -99 11z"/>
<path d="M3994 7601 c-47 -12 -54 -19 -54 -56 0 -46 22 -65 74 -65 41 0 44 2
50 31 3 17 6 40 6 50 0 18 -25 50 -38 48 -4 -1 -21 -4 -38 -8z"/>
<path d="M4133 7595 c-7 -21 5 -95 19 -112 14 -18 63 -16 78 2 16 19 8 104
-11 116 -23 15 -79 10 -86 -6z"/>
<path d="M4480 7588 c-16 -18 -20 -33 -18 -68 3 -39 7 -46 31 -54 39 -14 62
11 62 70 0 34 -5 49 -19 60 -26 19 -32 18 -56 -8z"/>
<path d="M4980 7597 c-38 -19 -49 -61 -23 -95 27 -36 47 -38 78 -8 32 32 34
79 3 100 -27 19 -26 19 -58 3z"/>
<path d="M4636 7578 c-22 -31 -20 -74 4 -98 25 -25 56 -26 70 -1 14 27 13 94
-2 109 -19 19 -55 14 -72 -10z"/>
<path d="M4808 7583 c-26 -30 -30 -60 -13 -93 34 -65 90 -21 83 66 -3 33 -7
39 -29 42 -15 2 -32 -4 -41 -15z"/>
<path d="M4300 7570 c-18 -34 -8 -82 18 -91 33 -13 62 20 62 71 0 39 -1 40
-35 40 -24 0 -37 -6 -45 -20z"/>
<path d="M12060 7767 c-33 -17 -70 -74 -70 -108 0 -42 54 -99 92 -99 40 0 95
34 114 72 19 36 8 71 -34 111 -34 32 -70 41 -102 24z"/>
<path d="M5975 7748 c-72 -39 -99 -101 -70 -161 31 -67 96 -70 148 -7 42 50
30 142 -22 170 -24 12 -31 12 -56 -2z"/>
<path d="M14860 7660 l0 -90 39 0 39 0 4 83 c2 47 -1 85 -7 89 -5 4 -25 8 -42
8 l-33 0 0 -90z"/>
<path d="M11229 7721 c-40 -8 -112 -57 -137 -92 -17 -24 -31 -193 -32 -380 l0
-106 34 -18 c32 -17 36 -17 59 -2 l25 16 4 205 c3 188 5 207 24 233 11 15 32
31 45 34 13 4 177 7 365 8 250 1 343 4 352 13 17 17 15 63 -5 79 -13 11 -85
14 -357 16 -188 1 -357 -2 -377 -6z"/>
<path d="M2950 7625 l0 -95 45 0 45 0 0 95 0 95 -45 0 -45 0 0 -95z"/>
<path d="M625 7657 c-58 -33 -81 -73 -88 -156 -8 -93 6 -136 59 -190 l45 -44
211 6 c116 4 483 7 815 7 l603 0 39 35 c51 47 67 106 53 199 -12 73 -36 114
-85 145 -32 20 -47 20 -822 20 l-790 1 -40 -23z m1578 -73 c51 -11 74 -113 43
-188 l-14 -33 -343 -5 c-189 -3 -544 -2 -789 1 l-445 6 -13 40 c-19 56 -10
130 18 160 23 25 24 25 254 27 352 4 1257 -2 1289 -8z"/>
<path d="M2058 7502 c-24 -3 -28 -8 -28 -35 0 -48 12 -59 56 -55 42 3 51 18
40 63 -6 25 -26 32 -68 27z"/>
<path d="M784 7486 c-3 -8 -4 -27 -2 -43 3 -25 7 -28 42 -28 34 0 41 4 49 28
5 15 6 34 3 42 -7 20 -85 20 -92 1z"/>
<path d="M1312 7488 c-13 -13 -15 -37 -6 -62 4 -11 19 -16 44 -16 43 0 57 21
46 66 -5 19 -13 24 -39 24 -18 0 -38 -5 -45 -12z"/>
<path d="M1487 7493 c-14 -13 -6 -60 12 -77 30 -27 64 -17 75 21 6 23 5 37 -4
48 -12 15 -71 21 -83 8z"/>
<path d="M1683 7493 c-30 -6 -38 -38 -18 -69 13 -20 23 -24 48 -22 26 3 32 8
38 35 3 17 3 36 0 41 -8 13 -41 20 -68 15z"/>
<path d="M1852 7488 c-17 -17 -15 -52 6 -78 38 -47 110 9 84 65 -9 19 -19 25
-45 25 -18 0 -38 -5 -45 -12z"/>
<path d="M962 7453 c3 -36 5 -38 38 -38 33 0 35 2 38 38 l3 37 -41 0 -41 0 3
-37z"/>
<path d="M1134 7476 c-3 -8 -4 -25 -2 -38 3 -20 9 -23 43 -23 39 0 40 1 43 38
l3 37 -41 0 c-26 0 -43 -5 -46 -14z"/>
<path d="M14500 7431 c0 -27 15 -34 31 -15 10 13 10 17 -2 25 -22 13 -29 11
-29 -10z"/>
<path d="M15082 7420 c0 -19 2 -27 5 -17 2 9 2 25 0 35 -3 9 -5 1 -5 -18z"/>
<path d="M14860 7341 c0 -134 6 -161 36 -161 35 0 44 33 44 156 l0 104 -40 0
-40 0 0 -99z"/>
<path d="M15241 7424 c0 -11 3 -14 6 -6 3 7 2 16 -1 19 -3 4 -6 -2 -5 -13z"/>
<path d="M15260 7429 c0 -5 5 -7 11 -3 8 5 10 -1 7 -20 -3 -14 -1 -26 3 -26 5
0 9 14 9 30 0 20 -5 30 -15 30 -8 0 -15 -5 -15 -11z"/>
<path d="M16085 7415 c-62 -22 -95 -65 -95 -123 0 -93 65 -149 163 -139 35 3
56 12 74 30 37 37 23 48 -50 42 -65 -6 -100 5 -120 36 -15 25 0 67 31 83 54
27 70 28 93 5 17 -17 27 -20 52 -12 43 12 44 27 3 58 -43 33 -98 40 -151 20z"/>
<path d="M16675 7358 c-4 -35 -5 -92 -3 -128 3 -62 4 -65 30 -68 26 -3 26 -2
33 72 4 42 10 76 14 76 3 0 20 -19 36 -41 48 -66 101 -109 134 -109 38 0 43
13 49 148 l5 112 -32 0 c-22 0 -31 -5 -31 -17 0 -9 -5 -46 -11 -82 l-12 -65
-76 82 c-59 62 -84 82 -103 82 -25 0 -27 -3 -33 -62z"/>
<path d="M2956 7369 c-3 -17 -6 -65 -6 -106 l0 -74 43 3 42 3 3 80 c4 111 -1
125 -42 125 -30 0 -34 -4 -40 -31z"/>
<path d="M16331 7349 c1 -30 4 -81 8 -114 5 -55 8 -60 30 -60 23 0 24 3 25 75
l1 75 40 3 c59 3 87 -16 111 -76 25 -63 32 -71 44 -52 16 24 11 71 -10 116
-28 56 -72 77 -172 82 l-78 4 1 -53z"/>
<path d="M1070 7201 c-87 -22 -130 -87 -130 -197 0 -80 23 -139 65 -172 41
-33 137 -31 187 3 64 44 69 75 14 89 -20 5 -34 2 -47 -10 -10 -9 -35 -17 -56
-18 -31 -1 -40 4 -59 32 -28 41 -40 112 -24 141 14 26 67 61 94 61 11 0 32
-12 47 -26 l26 -25 28 23 27 24 -41 37 c-23 20 -50 37 -60 37 -11 0 -25 2 -33
4 -7 2 -24 1 -38 -3z"/>
<path d="M1292 7014 c2 -143 6 -199 16 -206 16 -14 150 -3 195 16 138 57 136
288 -4 357 -20 10 -70 19 -122 22 l-88 6 3 -195z m178 91 c58 -30 76 -104 40
-163 -22 -35 -54 -52 -101 -52 -27 0 -29 3 -29 38 0 22 -3 73 -6 115 l-7 77
37 0 c20 0 50 -7 66 -15z"/>
<path d="M1663 7197 c-5 -7 -9 -89 -11 -184 -3 -164 -3 -172 18 -193 19 -19
24 -20 43 -7 20 13 23 26 27 117 l5 102 35 -62 c39 -69 119 -150 148 -150 37
0 42 20 32 126 -5 54 -10 127 -10 161 0 80 -6 93 -41 93 l-29 0 0 -105 c0 -58
-4 -105 -9 -105 -5 0 -25 26 -45 58 -68 112 -143 180 -163 149z"/>
<path d="M13385 7104 c-172 -134 -187 -144 -246 -174 -50 -26 -57 -33 -62 -67
-4 -21 -7 -203 -7 -405 l0 -368 43 -1 c45 0 274 -16 370 -25 l57 -6 0 547 c0
540 -3 585 -33 585 -7 0 -61 -39 -122 -86z m-33 -261 c10 -9 18 -28 18 -43 0
-54 -82 -88 -119 -51 -34 34 -24 73 24 99 29 16 56 14 77 -5z m7 -267 c18 -19
22 -32 17 -51 -8 -32 -63 -60 -100 -51 -34 8 -61 59 -46 86 25 46 93 54 129
16z m-26 -247 c62 -28 55 -90 -12 -110 -46 -14 -77 -1 -92 39 -9 24 -7 30 20
54 34 31 48 33 84 17z"/>
<path d="M11732 7173 c-56 -10 -32 -63 29 -63 45 0 78 26 57 45 -16 15 -55 23
-86 18z"/>
<path d="M12711 7078 c-77 -57 -172 -123 -211 -147 -39 -24 -75 -54 -80 -66
-11 -29 -17 -527 -8 -580 l8 -40 -50 -23 c-28 -13 -63 -40 -78 -60 -26 -34
-27 -40 -27 -161 0 -148 2 -154 107 -278 42 -51 79 -86 96 -90 28 -8 123 -8
1065 -2 l567 4 23 26 c12 15 39 37 61 49 59 35 76 72 76 160 -1 50 -7 93 -21
130 -43 116 -48 175 -54 665 -4 259 -8 480 -11 493 -8 41 -45 26 -180 -78 -71
-54 -164 -118 -206 -141 l-78 -42 0 -526 c0 -289 3 -536 6 -549 8 -30 49 -39
83 -19 14 8 62 18 106 22 44 4 113 16 154 26 92 24 91 24 91 -3 0 -29 -33 -84
-59 -97 -41 -23 -347 -35 -582 -24 -146 6 -305 7 -454 1 -127 -5 -309 -8 -407
-6 -203 4 -199 2 -244 101 -25 55 -28 74 -29 164 0 140 -2 138 167 137 72 -1
183 -4 247 -8 133 -7 147 -3 130 40 -8 21 -11 165 -11 509 1 264 -1 488 -4
498 -11 35 -52 17 -193 -85z m-2 -244 c37 -31 38 -38 8 -68 -32 -32 -93 -43
-118 -20 -31 28 -25 71 14 94 42 26 59 25 96 -6z m1291 -6 c27 -29 25 -52 -6
-77 -51 -40 -134 -19 -134 34 0 56 99 87 140 43z m-1287 -255 c19 -18 22 -50
7 -73 -6 -10 -27 -15 -71 -15 -69 0 -87 13 -75 59 13 51 95 68 139 29z m1272
-18 c31 -30 32 -68 3 -95 -32 -29 -74 -26 -109 9 -35 36 -36 41 -3 80 33 39
74 41 109 6z m-1300 -157 c29 -13 43 -53 28 -77 -16 -26 -84 -26 -116 -1 -67
53 5 116 88 78z m1321 -231 c49 -45 58 -104 21 -141 -22 -22 -35 -26 -79 -26
-56 1 -77 11 -96 47 -18 33 -14 72 9 105 40 56 94 62 145 15z"/>
<path d="M11570 7141 c0 -11 21 -19 38 -14 21 8 13 23 -13 23 -14 0 -25 -4
-25 -9z"/>
<path d="M3804 7117 c-49 -23 -102 -75 -115 -115 -17 -48 -17 -224 -1 -280 14
-45 78 -131 124 -165 25 -18 55 -22 260 -34 316 -18 1519 -8 1560 13 43 22
136 139 145 182 4 20 7 89 8 153 0 110 -1 117 -28 157 -15 23 -45 54 -68 69
l-40 27 -187 -3 c-103 -2 -243 -6 -311 -9 -68 -4 -248 -4 -400 -1 -862 20
-915 20 -947 6z m971 -100 c237 -1 514 2 616 7 172 8 188 8 217 -10 48 -28 66
-75 67 -174 0 -90 -13 -128 -67 -192 l-23 -27 -725 -1 c-399 -1 -788 2 -864 7
l-139 8 -35 63 c-58 106 -56 236 4 293 24 22 36 24 162 30 75 3 187 4 247 2
61 -2 304 -5 540 -6z"/>
<path d="M5190 6910 c-31 -31 -34 -63 -11 -108 24 -48 46 -58 78 -37 26 17 63
72 63 93 0 8 -13 27 -29 43 -34 34 -72 38 -101 9z"/>
<path d="M5410 6910 c-11 -11 -20 -27 -20 -35 0 -24 25 -67 54 -95 32 -30 52
-21 79 33 17 33 17 38 2 66 -27 53 -79 67 -115 31z"/>
<path d="M4151 6889 c-21 -8 -23 -14 -18 -55 11 -103 91 -115 104 -16 9 70
-22 97 -86 71z"/>
<path d="M4474 6865 c-24 -59 -10 -138 27 -150 27 -9 37 0 49 43 22 82 7 142
-36 142 -19 0 -28 -8 -40 -35z"/>
<path d="M4649 6883 c-19 -22 -18 -135 0 -157 22 -26 55 -16 62 19 11 52 9
131 -3 143 -17 17 -43 15 -59 -5z"/>
<path d="M3950 6864 c-24 -61 -9 -93 47 -101 54 -7 83 20 83 76 0 45 -10 51
-76 51 -39 0 -46 -3 -54 -26z"/>
<path d="M4804 6864 c-34 -51 -14 -144 31 -144 33 0 47 35 43 109 -3 52 -5 56
-30 59 -20 2 -31 -4 -44 -24z"/>
<path d="M4977 6878 c-40 -31 -37 -101 7 -137 15 -13 20 -11 42 10 33 34 43
93 19 119 -21 23 -44 25 -68 8z"/>
<path d="M4322 6871 c-9 -5 -12 -25 -10 -62 3 -46 6 -54 24 -57 26 -4 44 33
44 88 0 35 -3 40 -22 40 -13 0 -29 -4 -36 -9z"/>
<path d="M15940 7071 c-354 -6 -341 -4 -402 -66 -37 -37 -51 -93 -46 -185 2
-56 9 -88 28 -124 31 -61 61 -83 125 -95 28 -4 411 -7 851 -6 867 4 829 1 881
57 42 45 57 96 56 198 0 120 -24 170 -99 208 -26 14 -901 21 -1394 13z m1358
-114 c44 -40 51 -131 16 -215 -24 -59 -36 -61 -439 -51 -218 5 -504 4 -725 -1
-437 -12 -491 -9 -524 31 -27 32 -43 116 -31 167 3 17 17 42 30 56 l24 26 303
1 c167 1 353 4 413 8 61 3 290 4 510 2 389 -3 401 -4 423 -24z"/>
<path d="M16915 6888 c-47 -25 -59 -72 -27 -101 28 -25 67 -21 91 9 27 34 26
50 -4 79 -27 28 -32 29 -60 13z"/>
<path d="M17112 6888 c-29 -15 -39 -55 -21 -87 11 -20 24 -27 53 -29 47 -4 66
11 66 53 0 24 -7 39 -26 54 -30 23 -39 24 -72 9z"/>
<path d="M16198 6869 c-23 -13 -25 -74 -2 -83 9 -3 29 -6 45 -6 27 0 29 3 29
40 0 29 -5 42 -19 50 -24 12 -31 12 -53 -1z"/>
<path d="M16356 6867 c-12 -9 -17 -23 -14 -47 2 -28 9 -37 32 -45 24 -8 31 -6
47 14 23 28 24 54 3 75 -19 19 -44 20 -68 3z"/>
<path d="M16510 6859 c-26 -48 19 -102 66 -80 18 8 24 19 24 44 0 18 -5 38
-12 45 -20 20 -66 15 -78 -9z"/>
<path d="M16670 6860 c-13 -25 -6 -51 20 -75 17 -15 24 -16 45 -7 32 15 49 56
35 83 -15 28 -85 27 -100 -1z"/>
<path d="M15978 6859 c-41 -24 -6 -89 47 -89 36 0 55 20 55 60 0 33 -65 51
-102 29z"/>
<path d="M15743 6844 c-3 -8 -1 -26 5 -40 11 -22 17 -24 86 -24 l74 0 4 35 c2
20 2 38 -1 40 -2 3 -40 5 -83 5 -62 0 -80 -3 -85 -16z"/>
<path d="M2952 6983 l3 -88 40 0 40 0 3 88 3 87 -46 0 -46 0 3 -87z"/>
<path d="M14860 6966 l0 -86 40 0 41 0 -3 83 -3 82 -37 3 -38 3 0 -85z"/>
<path d="M2770 6990 c-23 -7 -23 -8 -3 -9 12 -1 25 4 28 9 3 6 5 10 3 9 -2 -1
-14 -5 -28 -9z"/>
<path d="M2952 6678 l3 -93 40 0 40 0 3 84 c3 93 -1 101 -56 101 l-33 0 3 -92z"/>
<path d="M14860 6660 l0 -91 38 7 c20 4 38 7 39 8 0 0 3 37 4 81 l4 80 -43 3
-42 3 0 -91z"/>
<path d="M1030 6670 c-69 -4 -186 -6 -260 -3 -125 4 -138 3 -168 -16 -86 -55
-78 -215 13 -258 32 -15 44 -16 128 -3 71 10 230 13 687 12 327 -1 655 -5 727
-8 l132 -7 29 31 c43 45 50 116 20 195 -18 47 -37 51 -263 52 -115 1 -370 4
-565 7 -195 4 -411 2 -480 -2z m1196 -104 c9 -3 14 -19 14 -42 l0 -37 -67 7
c-134 12 -1374 9 -1442 -4 -72 -13 -83 -7 -79 45 l3 30 105 5 c139 7 1447 3
1466 -4z"/>
<path d="M15593 6485 c-80 -41 -97 -71 -102 -184 -4 -120 10 -172 63 -227 71
-73 25 -71 811 -45 239 8 411 8 622 0 334 -13 339 -12 400 69 44 58 56 110 50
206 -4 67 -10 85 -35 120 -17 22 -42 50 -57 61 -26 20 -44 20 -863 23 l-837 3
-52 -26z m1675 -89 c42 -22 62 -68 62 -139 0 -59 -23 -105 -70 -138 -23 -16
-79 -18 -796 -24 -497 -3 -781 -2 -797 4 -43 17 -71 83 -71 173 -1 72 1 80 27
105 l27 28 613 6 c875 8 965 7 1005 -15z"/>
<path d="M16889 6291 c-16 -16 -29 -35 -29 -41 0 -20 49 -60 75 -60 57 0 85
71 43 110 -30 28 -54 25 -89 -9z"/>
<path d="M17116 6299 c-31 -25 -34 -61 -6 -89 27 -27 65 -26 84 2 22 30 20 60
-4 86 -26 27 -40 28 -74 1z"/>
<path d="M16186 6278 c-16 -22 -13 -61 7 -85 15 -20 55 -15 67 6 14 26 13 74
-2 89 -19 19 -55 14 -72 -10z"/>
<path d="M16341 6278 c-17 -47 26 -106 65 -91 20 7 35 72 23 94 -15 29 -77 26
-88 -3z"/>
<path d="M16510 6285 c-14 -17 -5 -68 15 -85 40 -33 99 26 76 76 -8 18 -18 24
-45 24 -18 0 -39 -7 -46 -15z"/>
<path d="M15744 6277 c-3 -8 -4 -28 -2 -44 3 -27 4 -28 74 -31 80 -3 119 8
126 36 10 37 -7 46 -101 50 -75 4 -92 2 -97 -11z"/>
<path d="M15972 6278 c-35 -35 8 -93 65 -86 33 4 54 48 37 76 -13 21 -84 28
-102 10z"/>
<path d="M16671 6276 c-8 -9 -11 -26 -7 -41 16 -63 100 -47 94 18 -3 29 -7 32
-39 35 -23 2 -40 -2 -48 -12z"/>
<path d="M2950 6349 l0 -100 43 3 42 3 3 98 3 97 -46 0 -45 0 0 -101z"/>
<path d="M14857 6353 c-3 -54 -2 -102 2 -106 5 -5 24 -5 44 -2 l35 7 5 66 c3
37 4 81 3 97 -2 27 -6 30 -43 33 l-40 3 -6 -98z"/>
<path d="M14500 6330 c0 -16 4 -30 8 -30 5 0 7 14 4 30 -2 17 -6 30 -8 30 -2
0 -4 -13 -4 -30z"/>
<path d="M725 6312 c-150 -10 -185 -43 -185 -175 0 -76 21 -111 72 -120 18 -4
392 -7 830 -9 l798 -3 6 -33 c4 -18 4 -35 1 -38 -7 -7 -791 -5 -1227 3 -190 4
-360 6 -378 6 -70 0 -110 -63 -97 -151 9 -58 48 -102 100 -111 22 -3 395 -6
828 -5 627 1 794 4 813 15 14 7 34 28 46 47 17 28 20 44 16 96 -3 34 -13 77
-23 95 -23 45 -21 113 3 153 46 75 33 172 -27 202 -20 10 -119 15 -406 20
-741 12 -1071 14 -1170 8z m1510 -122 c21 -17 19 -67 -3 -79 -10 -6 -73 -6
-162 -1 -80 5 -428 9 -775 9 -346 0 -633 1 -637 1 -5 0 -8 18 -8 40 l0 39 58
4 c31 2 384 3 784 2 568 -2 731 -5 743 -15z m-1195 -345 c146 -3 472 -1 725 3
345 6 463 5 474 -4 15 -14 7 -70 -12 -76 -7 -1 -363 -1 -792 2 l-780 5 -3 28
c-6 53 2 60 66 53 31 -3 176 -8 322 -11z"/>
<path d="M3820 6203 c-42 -16 -107 -66 -125 -95 -17 -29 -20 -51 -20 -178 0
-114 4 -153 17 -183 22 -49 103 -153 131 -169 17 -10 219 -13 897 -13 l875 0
47 23 c58 29 114 92 130 146 6 23 12 95 12 161 1 129 -5 149 -60 214 -60 71
-31 69 -704 68 -520 0 -845 8 -1120 28 -36 2 -72 2 -80 -2z m430 -115 c69 -7
318 -12 720 -12 579 -1 618 -2 644 -19 43 -29 66 -89 66 -177 0 -85 -19 -138
-67 -186 l-31 -30 -553 -2 c-305 -1 -688 2 -851 6 -295 7 -297 8 -322 31 -14
14 -37 47 -51 75 -22 43 -25 63 -25 149 0 55 5 108 12 120 13 25 44 50 71 57
30 8 275 1 387 -12z"/>
<path d="M5176 5939 c-31 -37 -33 -67 -5 -103 44 -56 82 -54 119 7 27 44 25
64 -9 98 -39 38 -72 38 -105 -2z"/>
<path d="M5420 5952 c-41 -33 -19 -109 40 -139 32 -16 58 -1 76 42 19 45 18
48 -12 84 -30 36 -70 41 -104 13z"/>
<path d="M4479 5933 c-21 -25 -18 -116 5 -142 11 -12 27 -21 36 -21 36 0 60
128 31 163 -17 22 -55 22 -72 0z"/>
<path d="M4640 5914 c-24 -62 -2 -144 39 -144 23 0 29 15 37 86 8 61 -4 84
-42 84 -17 0 -28 -8 -34 -26z"/>
<path d="M4795 5904 c-20 -49 -19 -76 6 -108 42 -54 79 -22 79 69 0 61 -8 75
-41 75 -24 0 -31 -6 -44 -36z"/>
<path d="M4960 5908 c-23 -36 -20 -68 9 -107 23 -33 36 -36 60 -12 48 48 34
143 -22 149 -21 3 -31 -4 -47 -30z"/>
<path d="M3951 5911 c-17 -30 -13 -76 7 -94 25 -23 85 -22 106 2 12 13 16 32
14 62 l-3 44 -57 3 c-48 3 -58 0 -67 -17z"/>
<path d="M4136 5914 c-20 -52 13 -134 53 -134 45 0 68 81 35 128 -18 27 -78
31 -88 6z"/>
<path d="M4309 5896 c-15 -32 -4 -92 19 -101 25 -10 43 23 40 75 -3 38 -7 46
-25 48 -16 2 -26 -4 -34 -22z"/>
<path d="M2955 6107 c-3 -7 -4 -58 -3 -113 l3 -99 37 -3 36 -3 7 73 c4 40 5
91 3 113 -3 38 -5 40 -41 43 -25 2 -39 -1 -42 -11z"/>
<path d="M15082 6090 c0 -19 2 -27 5 -17 2 9 2 25 0 35 -3 9 -5 1 -5 -18z"/>
<path d="M14500 6085 c0 -14 4 -25 9 -25 4 0 6 11 3 25 -2 14 -6 25 -8 25 -2
0 -4 -11 -4 -25z"/>
<path d="M14525 6100 c3 -5 8 -10 11 -10 2 0 4 5 4 10 0 6 -5 10 -11 10 -5 0
-7 -4 -4 -10z"/>
<path d="M14858 6053 c-2 -66 2 -166 8 -172 1 -2 19 0 39 3 l35 7 0 109 0 110
-40 0 -40 0 -2 -57z"/>
<path d="M12572 6004 c-13 -9 -22 -26 -22 -42 0 -38 35 -92 60 -92 25 0 60 54
60 92 0 52 -52 75 -98 42z"/>
<path d="M12768 6009 c-32 -18 -17 -140 19 -153 21 -8 31 0 48 41 36 85 -3
149 -67 112z"/>
<path d="M13421 5979 c-27 -79 2 -148 57 -134 38 9 52 32 52 86 0 57 -18 79
-65 79 -28 0 -35 -5 -44 -31z"/>
<path d="M12942 5988 c-31 -31 3 -138 44 -138 16 0 44 57 44 90 0 43 -60 76
-88 48z"/>
<path d="M13118 5979 c-27 -15 -23 -74 7 -104 13 -14 28 -25 32 -25 45 1 73
108 34 130 -25 13 -51 12 -73 -1z"/>
<path d="M16119 5976 c-2 -2 -114 -6 -249 -8 -157 -3 -253 -9 -267 -16 -40
-22 -100 -100 -107 -139 -25 -153 30 -284 129 -312 48 -13 1599 -4 1655 10 49
12 104 61 131 116 18 37 23 64 22 124 0 96 -26 148 -92 187 -42 24 -57 27
-206 33 -172 8 -1009 12 -1016 5z m1155 -109 c83 -55 65 -239 -27 -265 -18 -5
-378 -8 -817 -8 l-784 1 -22 33 c-43 64 -40 186 7 228 32 29 119 32 899 30
675 -1 717 -2 744 -19z"/>
<path d="M16874 5785 c-10 -15 -13 -32 -9 -47 9 -29 44 -68 62 -68 23 0 63 51
63 80 0 58 -84 84 -116 35z"/>
<path d="M17090 5790 c-26 -26 -25 -53 3 -84 32 -35 62 -41 86 -17 27 27 27
61 0 95 -25 31 -61 34 -89 6z"/>
<path d="M16352 5788 c-7 -7 -12 -28 -12 -48 0 -43 15 -60 52 -60 29 0 48 27
48 70 0 40 -60 66 -88 38z"/>
<path d="M16514 5774 c-13 -19 -15 -32 -8 -52 8 -23 15 -27 49 -27 39 0 40 1
43 38 2 21 -2 45 -9 53 -19 23 -57 17 -75 -12z"/>
<path d="M16680 5780 c-34 -34 -20 -79 31 -95 27 -9 47 10 55 53 5 28 3 38
-11 49 -26 19 -52 16 -75 -7z"/>
<path d="M15970 5771 c-25 -47 5 -91 61 -91 23 0 30 6 39 36 10 30 9 38 -6 55
-23 26 -80 26 -94 0z"/>
<path d="M16193 5784 c-16 -7 -17 -76 -1 -92 7 -7 25 -12 40 -12 31 0 42 24
36 76 -2 24 -8 29 -33 31 -16 1 -36 0 -42 -3z"/>
<path d="M15805 5773 c-69 -14 -66 -12 -63 -46 3 -31 5 -32 53 -35 85 -5 113
4 123 41 5 18 7 35 5 40 -4 7 -83 8 -118 0z"/>
<path d="M13282 5961 c-22 -13 -10 -54 21 -71 26 -14 29 -14 43 4 17 24 17 28
2 48 -17 20 -49 30 -66 19z"/>
<path d="M2952 5648 l3 -103 40 0 40 0 3 103 3 102 -46 0 -46 0 3 -102z"/>
<path d="M14860 5599 c0 -115 2 -130 16 -125 9 3 27 6 40 6 l24 0 0 125 0 125
-40 0 -40 0 0 -131z"/>
<path d="M607 5575 c-81 -41 -88 -196 -12 -272 l34 -34 826 6 c636 4 830 8
845 17 52 33 78 164 45 228 -32 61 5 58 -895 62 -536 2 -831 0 -843 -7z m1637
-98 c15 -11 17 -21 11 -55 -4 -23 -12 -42 -18 -43 -7 -1 -365 0 -797 1 -581 1
-787 5 -792 13 -11 17 -10 71 2 83 5 5 315 10 792 12 641 2 787 0 802 -11z"/>
<path d="M15082 5510 c0 -14 2 -19 5 -12 2 6 2 18 0 25 -3 6 -5 1 -5 -13z"/>
<path d="M2936 5345 c-32 -30 -49 -70 -40 -99 12 -39 65 -86 98 -86 53 1 96
50 96 110 0 23 -10 42 -34 66 -42 42 -81 45 -120 9z"/>
<path d="M15599 5352 c-45 -22 -88 -72 -100 -117 -6 -22 -12 -85 -12 -141 0
-119 18 -169 85 -229 l41 -37 831 4 c919 4 856 0 923 70 50 52 66 100 66 204
1 107 -20 161 -84 218 l-39 36 -98 0 c-53 0 -431 1 -840 3 -628 2 -748 1 -773
-11z m978 -92 l683 0 32 -29 c33 -29 33 -30 33 -119 0 -86 -1 -92 -31 -129
l-31 -38 -114 -6 c-63 -4 -421 -10 -795 -14 -521 -5 -686 -4 -704 5 -56 30
-84 212 -43 282 31 53 54 60 178 54 61 -3 417 -6 792 -6z"/>
<path d="M17115 5163 c-53 -13 -59 -50 -16 -94 50 -49 110 -32 111 32 0 41
-48 73 -95 62z"/>
<path d="M16893 5140 c-38 -23 -41 -46 -12 -84 35 -45 83 -29 108 35 7 20 6
32 -5 48 -19 26 -49 27 -91 1z"/>
<path d="M15962 5128 c-25 -32 -24 -57 4 -83 49 -46 94 -28 94 37 0 27 -5 40
-19 48 -27 14 -66 13 -79 -2z"/>
<path d="M16196 5127 c-13 -10 -17 -24 -14 -57 3 -41 6 -45 31 -48 39 -5 57
14 57 57 0 56 -33 78 -74 48z"/>
<path d="M16352 5128 c-13 -13 -16 -67 -4 -84 13 -19 39 -23 61 -8 26 19 30
88 5 98 -25 9 -49 7 -62 -6z"/>
<path d="M16512 5128 c-7 -7 -12 -27 -12 -45 0 -39 41 -74 68 -57 21 14 35 59
28 89 -5 20 -13 25 -39 25 -18 0 -38 -5 -45 -12z"/>
<path d="M16683 5128 c-32 -41 -14 -98 31 -98 41 0 69 65 40 94 -19 19 -58 21
-71 4z"/>
<path d="M15758 5123 c-10 -2 -18 -8 -19 -11 0 -4 -2 -17 -5 -29 -7 -40 22
-56 90 -50 66 6 100 31 94 71 -3 19 -10 21 -73 23 -38 0 -78 -1 -87 -4z"/>
<path d="M12424 5352 c-49 -7 -65 -14 -94 -38 -59 -50 -70 -87 -70 -239 0 -95
4 -146 14 -170 21 -50 92 -122 134 -136 49 -16 1611 -5 1690 12 66 14 129 61
162 119 22 40 25 59 28 171 5 148 -10 197 -74 245 l-37 29 -266 2 c-486 5
-1467 8 -1487 5z m1727 -128 c29 -29 31 -38 36 -115 7 -108 -6 -154 -56 -203
l-39 -38 -824 -6 -824 -5 -28 34 c-16 19 -35 48 -43 66 -18 45 -17 205 2 243
33 64 -24 60 902 58 l843 -3 31 -31z"/>
<path d="M13967 5132 c-35 -36 -34 -53 4 -97 40 -46 72 -46 99 -2 26 43 25 69
-5 101 -31 34 -64 33 -98 -2z"/>
<path d="M12582 5117 c-29 -30 -30 -99 -3 -126 28 -28 70 -16 87 25 20 48 17
71 -11 99 -30 31 -46 31 -73 2z"/>
<path d="M12766 5118 c-31 -43 -14 -120 29 -140 31 -14 44 -4 54 43 19 83 -43
154 -83 97z"/>
<path d="M13112 5105 c-7 -14 -12 -39 -12 -54 0 -32 34 -81 56 -81 29 0 46 99
24 141 -15 28 -54 24 -68 -6z"/>
<path d="M13645 5110 c-35 -39 -10 -110 40 -110 24 0 75 48 75 71 0 24 -43 59
-72 59 -14 0 -33 -9 -43 -20z"/>
<path d="M12946 5104 c-14 -37 -6 -104 15 -125 21 -21 21 -21 41 -2 24 24 34
92 19 122 -14 25 -66 29 -75 5z"/>
<path d="M13431 5094 c-27 -35 -26 -59 4 -89 32 -33 51 -31 75 8 26 42 25 53
-5 82 -31 32 -48 31 -74 -1z"/>
<path d="M13788 5095 c-20 -44 42 -104 77 -75 17 14 19 53 5 81 -16 29 -67 26
-82 -6z"/>
<path d="M13272 5098 c-6 -6 -12 -29 -12 -50 0 -29 6 -41 26 -55 31 -20 53
-10 67 30 18 55 -43 113 -81 75z"/>
<path d="M14852 5344 c-31 -21 -55 -71 -48 -99 3 -13 18 -37 32 -54 56 -66
164 -21 164 69 0 79 -86 128 -148 84z"/>
<path d="M3842 5339 c-47 -6 -114 -48 -146 -92 -19 -26 -21 -42 -21 -170 1
-160 11 -195 80 -255 82 -72 1 -67 985 -67 993 0 913 -6 983 75 44 52 67 133
67 236 0 100 -13 145 -53 191 -64 73 -59 72 -552 74 -242 1 -634 4 -870 8
-237 3 -450 3 -473 0z m1775 -115 c40 -25 56 -62 61 -139 6 -93 -11 -165 -47
-199 l-28 -27 -867 -1 -867 -1 -25 24 c-53 50 -66 92 -62 206 3 103 4 105 34
132 l31 28 874 -4 c728 -4 878 -7 896 -19z"/>
<path d="M5186 5109 c-35 -28 -34 -67 2 -102 32 -31 44 -33 76 -12 33 22 51
67 37 94 -24 44 -73 53 -115 20z"/>
<path d="M5420 5110 c-32 -32 -26 -74 13 -104 43 -33 62 -33 92 0 30 33 32 63
4 98 -26 33 -79 36 -109 6z"/>
<path d="M4476 5088 c-24 -34 -21 -105 4 -118 30 -16 59 -3 66 28 3 15 7 32 9
39 2 7 -1 26 -6 43 -13 37 -50 41 -73 8z"/>
<path d="M4636 5088 c-21 -29 -21 -92 0 -113 28 -27 57 -15 73 31 12 34 12 44
0 70 -18 37 -52 43 -73 12z"/>
<path d="M4962 5087 c-12 -13 -22 -33 -22 -45 0 -27 33 -62 59 -62 43 0 68 82
35 114 -22 22 -47 20 -72 -7z"/>
<path d="M3940 5047 c0 -29 5 -58 12 -65 7 -7 31 -12 55 -12 37 0 45 4 53 26
6 14 10 38 10 53 0 33 -31 51 -90 51 l-40 0 0 -53z"/>
<path d="M4306 5084 c-18 -18 -20 -47 -6 -75 15 -27 67 -26 74 1 3 11 8 29 11
39 12 40 -48 67 -79 35z"/>
<path d="M4796 5078 c-31 -44 -9 -108 37 -108 26 0 49 44 45 87 -3 35 -6 38
-35 41 -23 2 -35 -3 -47 -20z"/>
<path d="M4127 5083 c-15 -14 -7 -80 11 -96 25 -23 69 -22 82 2 16 31 13 88
-6 95 -21 8 -79 8 -87 -1z"/>
<path d="M15080 5261 c0 -17 5 -33 10 -36 6 -4 10 8 10 29 0 20 -4 36 -10 36
-5 0 -10 -13 -10 -29z"/>
<path d="M12023 5259 c-20 -10 -41 -26 -46 -34 -11 -21 -24 -19 -30 5 -7 29
-94 28 -131 -1 -52 -41 -60 -71 -52 -209 7 -128 17 -199 27 -203 3 -1 13 6 22
15 22 22 37 101 37 195 0 65 3 77 25 98 31 32 65 32 124 -1 38 -22 55 -26 84
-20 72 13 117 76 84 116 -41 51 -93 65 -144 39z"/>
<path d="M15242 5260 c0 -14 2 -19 5 -12 2 6 2 18 0 25 -3 6 -5 1 -5 -13z"/>
<path d="M15268 5263 c7 -3 16 -2 19 1 4 3 -2 6 -13 5 -11 0 -14 -3 -6 -6z"/>
<path d="M5901 5227 c-6 -8 -14 -28 -17 -44 -13 -64 72 -98 130 -52 33 26 37
83 7 99 -28 15 -106 12 -120 -3z"/>
<path d="M1288 5059 c-229 -27 -527 -151 -656 -276 -59 -56 -62 -74 -19 -120
31 -35 60 -28 145 31 147 102 350 188 516 217 101 17 341 6 441 -21 100 -26
293 -119 404 -194 98 -65 137 -72 170 -30 32 40 26 67 -21 111 -87 79 -358
218 -493 253 -145 37 -321 48 -487 29z"/>
<path d="M14500 5030 c0 -19 5 -30 14 -30 10 0 14 10 14 30 -1 18 -6 30 -15
30 -8 0 -13 -12 -13 -30z"/>
<path d="M15267 5038 c-20 -22 -17 -34 8 -25 8 4 15 16 15 27 0 24 0 24 -23
-2z"/>
<path d="M2580 5035 c0 -8 4 -15 10 -15 5 0 7 7 4 15 -4 8 -8 15 -10 15 -2 0
-4 -7 -4 -15z"/>
<path d="M14858 4931 l-3 -121 43 0 43 0 -3 118 -3 117 -37 3 -37 3 -3 -120z"/>
<path d="M2950 4926 c0 -63 3 -117 8 -119 4 -2 24 -2 45 0 l37 5 0 114 0 114
-45 0 -45 0 0 -114z"/>
<path d="M1300 4834 c-108 -21 -238 -61 -308 -94 -143 -68 -242 -145 -242
-187 0 -26 41 -73 62 -73 7 0 54 23 103 50 122 68 200 105 292 137 73 26 89
28 238 28 155 0 163 -1 255 -33 52 -18 123 -51 157 -74 50 -32 77 -42 130 -49
38 -4 85 -11 106 -15 36 -6 37 -6 37 23 0 39 -42 78 -155 144 -99 57 -199 101
-284 125 -55 15 -337 28 -391 18z"/>
<path d="M14502 4800 c0 -14 2 -19 5 -12 2 6 2 18 0 25 -3 6 -5 1 -5 -13z"/>
<path d="M2957 4684 c-4 -4 -7 -40 -7 -81 l0 -73 45 0 45 0 0 75 c0 73 -1 75
-24 75 -13 0 -31 2 -38 5 -8 3 -17 2 -21 -1z"/>
<path d="M14854 4619 c3 -34 6 -69 6 -78 0 -13 8 -16 39 -13 38 4 38 4 45 55
11 99 12 97 -45 97 l-52 0 7 -61z"/>
<path d="M1273 4615 c-149 -38 -369 -156 -407 -217 -8 -13 -6 -24 10 -45 32
-43 63 -41 162 13 164 90 226 112 358 129 65 8 201 -10 272 -37 l56 -21 36 42
c19 22 44 41 55 41 18 0 18 2 -5 20 -118 92 -347 124 -537 75z"/>
<path d="M15793 4621 c-208 -6 -219 -9 -266 -72 -53 -73 -48 -261 10 -337 42
-56 77 -64 219 -56 68 4 124 11 124 15 0 5 -19 9 -43 9 -71 0 -160 21 -185 44
-41 37 -52 70 -52 158 0 73 3 87 24 113 l24 30 794 0 c738 0 795 -1 825 -18
45 -24 53 -44 53 -129 0 -125 -38 -171 -161 -192 -78 -14 -77 -17 9 -35 72
-15 117 -14 151 3 41 22 88 80 100 123 17 61 13 172 -8 218 -23 51 -80 101
-128 114 -45 11 -1211 21 -1490 12z"/>
<path d="M15082 4545 c0 -16 2 -22 5 -12 2 9 2 23 0 30 -3 6 -5 -1 -5 -18z"/>
<path d="M12395 4522 c-40 -14 -76 -46 -102 -90 -22 -37 -28 -61 -31 -131 -7
-153 25 -249 101 -303 30 -21 34 -22 586 -19 1328 5 1199 -2 1274 70 49 46 67
108 67 225 -1 133 -42 207 -132 234 -38 12 -1731 25 -1763 14z m1727 -103 c42
-22 58 -69 58 -166 0 -85 -2 -94 -27 -124 -15 -17 -41 -37 -58 -44 -23 -9
-225 -12 -848 -11 l-819 1 -23 27 c-28 32 -39 104 -33 209 3 64 7 74 34 98
l30 27 834 -3 c535 -3 840 -8 852 -14z"/>
<path d="M12577 4302 c-10 -10 -17 -34 -17 -54 0 -44 27 -71 67 -66 23 2 31
11 42 44 13 38 13 45 -2 68 -21 31 -66 35 -90 8z"/>
<path d="M12766 4305 c-33 -34 -9 -125 33 -125 42 0 68 75 39 112 -20 25 -54
31 -72 13z"/>
<path d="M13681 4294 c-12 -15 -21 -34 -21 -44 0 -31 39 -70 69 -70 32 0 81
43 81 70 0 34 -39 70 -75 70 -24 0 -39 -7 -54 -26z"/>
<path d="M13945 4300 c-21 -23 -14 -64 17 -97 30 -32 61 -29 92 8 32 38 32 49
1 83 -30 32 -83 36 -110 6z"/>
<path d="M12953 4303 c-8 -3 -13 -23 -13 -47 0 -68 54 -103 78 -51 32 69 -5
123 -65 98z"/>
<path d="M13116 4288 c-23 -32 -20 -61 8 -88 31 -28 51 -21 66 25 10 30 9 40
-4 60 -20 31 -50 32 -70 3z"/>
<path d="M13282 4294 c-29 -20 -29 -64 1 -92 29 -28 42 -28 61 0 23 33 20 74
-6 92 -12 9 -25 16 -28 16 -3 0 -16 -7 -28 -16z"/>
<path d="M13430 4285 c-30 -36 1 -109 43 -103 11 2 29 16 41 31 19 26 19 30 5
55 -17 32 -68 42 -89 17z"/>
<path d="M15260 4502 c6 -13 14 -21 18 -18 3 4 -2 14 -12 24 -18 16 -18 16 -6
-6z"/>
<path d="M3781 4468 c-25 -13 -58 -41 -75 -62 l-31 -38 0 -136 c1 -160 10
-187 94 -265 l50 -47 903 0 c860 0 905 1 944 19 84 38 124 124 124 265 -1 123
-11 161 -57 208 -69 72 -3 67 -929 67 -461 0 -870 3 -909 7 -61 5 -75 3 -114
-18z m1857 -111 c18 -18 26 -41 33 -98 13 -106 3 -165 -35 -207 l-32 -34 -869
2 -870 1 -28 27 c-48 45 -57 73 -57 176 0 91 1 97 29 129 l30 33 887 -2 888
-3 24 -24z"/>
<path d="M5177 4250 c-35 -41 -34 -65 2 -101 36 -35 64 -37 96 -4 49 48 27
117 -41 131 -26 5 -35 1 -57 -26z"/>
<path d="M5425 4255 c-14 -13 -25 -32 -25 -42 1 -35 56 -83 95 -83 24 0 65 50
65 80 0 63 -88 93 -135 45z"/>
<path d="M4475 4250 c-21 -23 -25 -91 -6 -114 19 -23 57 -20 75 6 19 27 21 99
4 116 -18 18 -53 14 -73 -8z"/>
<path d="M4646 4257 c-26 -19 -33 -93 -11 -117 10 -11 26 -20 36 -20 47 0 68
105 27 134 -27 19 -30 19 -52 3z"/>
<path d="M4807 4255 c-9 -8 -21 -31 -28 -52 -11 -35 -10 -38 15 -60 35 -30 50
-29 76 4 47 60 -12 160 -63 108z"/>
<path d="M3946 4244 c-28 -27 -11 -98 26 -110 28 -9 77 5 88 26 17 32 12 78
-9 90 -29 15 -87 12 -105 -6z"/>
<path d="M4133 4254 c-8 -4 -13 -25 -13 -54 0 -52 15 -70 58 -70 43 0 72 81
39 109 -17 13 -67 22 -84 15z"/>
<path d="M4314 4252 c-39 -25 -20 -92 25 -92 30 0 41 18 41 66 0 29 -39 44
-66 26z"/>
<path d="M4955 4236 c-22 -34 -15 -75 16 -99 32 -23 60 -12 78 32 29 68 -55
128 -94 67z"/>
<path d="M1903 4456 c-83 -27 -153 -88 -195 -170 -55 -108 -36 -250 45 -342
61 -69 141 -104 237 -104 181 1 311 133 313 318 1 92 -20 148 -83 216 -70 75
-219 114 -317 82z m198 -137 c59 -34 84 -84 84 -174 0 -90 -24 -133 -97 -169
-70 -35 -130 -34 -198 2 -89 46 -119 111 -99 210 12 60 51 112 108 143 49 26
142 21 202 -12z"/>
<path d="M1967 4243 c-9 -9 -9 -73 1 -74 47 -6 67 -2 70 14 8 39 -47 85 -71
60z"/>
<path d="M1310 4404 c-122 -32 -270 -124 -270 -167 0 -28 50 -77 78 -77 15 0
56 18 92 40 117 73 252 99 333 65 20 -8 42 -15 49 -15 18 0 80 122 69 133 -34
34 -253 47 -351 21z"/>
<path d="M16880 4391 c-34 -34 -31 -62 12 -94 24 -18 27 -18 57 -2 18 9 37 27
43 41 10 20 8 29 -9 52 -29 39 -66 40 -103 3z"/>
<path d="M17082 4397 c-29 -30 -28 -45 5 -79 46 -48 103 -34 103 27 0 69 -63
100 -108 52z"/>
<path d="M2950 4348 c0 -97 5 -108 51 -108 l39 0 0 79 c0 86 -4 91 -61 91 -29
0 -29 0 -29 -62z"/>
<path d="M14860 4320 l0 -90 40 0 40 0 0 84 c0 90 -4 96 -56 96 -24 0 -24 -1
-24 -90z"/>
<path d="M16202 4399 c-17 -7 -22 -16 -22 -44 0 -50 16 -75 46 -75 19 0 28 8
39 35 26 60 -8 104 -63 84z"/>
<path d="M16350 4390 c-19 -36 -8 -83 23 -100 27 -14 29 -14 48 9 23 28 25 74
3 95 -22 23 -61 20 -74 -4z"/>
<path d="M15977 4382 c-23 -26 -21 -55 6 -80 29 -27 61 -28 87 -2 24 24 26 63
4 84 -21 22 -77 20 -97 -2z"/>
<path d="M16512 4388 c-19 -19 -14 -66 9 -89 25 -25 46 -22 72 13 17 23 19 33
11 55 -7 22 -16 29 -44 31 -19 2 -41 -3 -48 -10z"/>
<path d="M16678 4389 c-24 -13 -23 -61 1 -83 26 -23 60 -17 84 16 19 25 19 28
3 52 -18 28 -56 34 -88 15z"/>
<path d="M12011 4365 c-31 -40 -35 -80 -14 -122 35 -72 91 -80 151 -22 45 44
44 86 -3 134 -46 45 -102 49 -134 10z"/>
<path d="M15730 4365 c-10 -26 -4 -55 14 -67 13 -9 146 2 169 14 22 11 23 64
1 72 -9 3 -51 6 -95 6 -76 0 -80 -1 -89 -25z"/>
<path d="M5902 4352 c-57 -53 -49 -112 20 -151 78 -44 157 98 92 164 -25 25
-78 19 -112 -13z"/>
<path d="M1392 4166 c-80 -44 -82 -180 -2 -221 51 -26 88 -20 131 24 31 31 39
46 39 76 0 98 -91 164 -168 121z"/>
<path d="M2950 4035 l0 -85 45 0 45 0 0 85 0 85 -45 0 -45 0 0 -85z"/>
<path d="M14860 4035 l0 -85 39 0 c45 0 51 11 51 101 0 55 -1 57 -31 63 -60
12 -59 13 -59 -79z"/>
<path d="M15900 4109 c-47 -4 -127 -7 -179 -8 -81 -1 -100 -4 -137 -26 -64
-38 -84 -78 -91 -182 -7 -106 6 -160 49 -209 40 -45 57 -54 132 -65 70 -11
1454 -13 1558 -3 84 8 121 31 163 98 28 46 30 56 29 140 0 99 -6 116 -62 178
-50 55 -77 66 -178 73 -132 8 -1186 11 -1284 4z m1373 -127 c27 -25 57 -87 57
-119 0 -48 -20 -103 -50 -136 l-28 -32 -789 1 c-582 0 -794 3 -810 12 -76 41
-85 242 -12 279 33 18 169 20 943 16 618 -3 671 -5 689 -21z"/>
<path d="M16888 3894 c-35 -19 -36 -52 -3 -88 29 -31 44 -33 73 -6 34 32 39
70 12 92 -27 22 -46 22 -82 2z"/>
<path d="M17081 3894 c-17 -13 -21 -22 -16 -43 13 -58 89 -82 119 -39 22 31
20 45 -9 73 -28 29 -61 32 -94 9z"/>
<path d="M16358 3889 c-21 -12 -24 -69 -6 -87 19 -19 66 -15 78 7 14 26 13 64
-2 79 -15 15 -47 15 -70 1z"/>
<path d="M16518 3889 c-22 -13 -24 -62 -2 -83 33 -34 94 -7 94 42 0 22 -34 52
-60 52 -8 0 -23 -5 -32 -11z"/>
<path d="M15752 3880 c-18 -8 -21 -15 -16 -37 10 -42 17 -46 90 -41 55 3 70 8
85 27 25 31 24 47 -3 55 -34 9 -130 6 -156 -4z"/>
<path d="M15967 3884 c-13 -13 -7 -61 8 -74 9 -7 32 -13 52 -14 32 -1 38 3 47
27 15 42 -2 61 -55 65 -25 2 -48 0 -52 -4z"/>
<path d="M16193 3883 c-18 -7 -16 -78 1 -92 8 -7 27 -11 43 -9 23 2 30 10 37
40 7 27 6 41 -4 52 -12 15 -51 20 -77 9z"/>
<path d="M16685 3874 c-26 -26 -16 -77 18 -88 38 -14 61 2 65 45 5 52 -47 79
-83 43z"/>
<path d="M12765 3875 c-44 -36 -140 -111 -212 -166 l-133 -102 0 -410 0 -411
50 -48 50 -48 120 0 c135 0 159 7 222 68 l37 35 -1 556 c0 306 -5 564 -10 574
-15 29 -41 19 -123 -48z m-53 -292 c40 -36 6 -103 -52 -103 -33 0 -80 38 -80
64 0 23 49 56 83 56 17 0 39 -7 49 -17z m-27 -224 c57 -14 69 -29 49 -57 -8
-12 -20 -19 -28 -16 -7 3 -19 -2 -26 -11 -18 -22 -60 -19 -87 7 -27 25 -29 45
-6 70 19 21 37 22 98 7z m15 -274 c44 -23 73 -71 74 -122 1 -39 -3 -49 -38
-80 -34 -32 -43 -35 -80 -30 -58 8 -106 61 -106 117 0 54 22 93 62 113 41 21
52 21 88 2z"/>
<path d="M13405 3879 c-77 -66 -184 -150 -278 -219 l-61 -46 2 -408 c2 -456
-2 -431 74 -486 39 -29 46 -30 142 -30 93 0 105 2 152 30 28 16 63 43 77 60
l26 31 -1 547 c0 301 -5 555 -10 565 -15 30 -51 18 -123 -44z m-60 -294 c30
-29 32 -58 5 -85 -23 -23 -48 -25 -84 -8 -47 21 -46 77 2 103 38 20 49 19 77
-10z m-30 -231 c16 -16 13 -46 -7 -71 -17 -21 -55 -15 -77 13 -20 25 -20 34 2
62 13 17 63 15 82 -4z m69 -16 c7 -12 6 -21 -3 -32 -21 -25 -31 -19 -31 20 0
37 14 42 34 12z m-30 -259 c36 -29 56 -70 56 -120 0 -33 -6 -47 -34 -75 -41
-41 -78 -44 -127 -11 -65 44 -79 122 -32 177 44 53 93 63 137 29z"/>
<path d="M14029 3868 c-91 -78 -217 -178 -288 -229 l-43 -31 2 -376 c1 -207 5
-396 7 -420 5 -36 12 -48 55 -82 l51 -40 116 0 c112 0 119 1 162 29 24 16 54
38 67 50 l22 22 -2 572 -3 572 -30 3 c-25 2 -45 -9 -116 -70z m-43 -283 c42
-42 15 -93 -53 -102 -34 -4 -43 -2 -57 18 -24 34 -20 65 12 88 36 27 68 26 98
-4z m-45 -225 c25 -14 25 -54 -1 -80 -25 -25 -31 -25 -64 1 -61 48 -5 116 65
79z m72 -14 c22 -17 22 -29 -2 -50 -17 -16 -19 -16 -25 6 -14 54 -6 69 27 44z
m-33 -261 c60 -31 90 -131 54 -183 -17 -25 -64 -52 -89 -52 -32 0 -86 33 -100
61 -24 45 -19 103 12 139 41 50 76 59 123 35z"/>
<path d="M11281 3893 c5 -21 9 -80 9 -130 0 -90 1 -93 25 -99 14 -3 38 -22 55
-40 25 -29 30 -43 30 -88 0 -63 -23 -99 -74 -116 l-33 -11 -6 -112 c-9 -149
-9 -217 1 -217 29 0 159 124 214 204 47 68 89 158 112 238 17 57 37 243 29
265 -3 7 -26 15 -51 19 -62 9 -191 56 -258 94 -30 16 -56 30 -58 30 -2 0 0
-17 5 -37z"/>
<path d="M6735 3893 c-61 -32 -207 -83 -237 -83 -50 0 -52 -7 -39 -148 6 -71
18 -156 27 -187 35 -137 142 -287 259 -363 l50 -33 3 157 c1 86 1 159 -2 161
-2 3 -23 7 -46 10 -37 5 -44 11 -57 42 -20 47 -13 133 14 169 11 15 36 36 56
47 l37 20 0 118 c0 64 -3 117 -7 117 -5 -1 -30 -13 -58 -27z"/>
<path d="M6868 3798 l3 -123 32 -15 c49 -23 77 -73 77 -137 0 -70 -20 -101
-71 -109 l-39 -7 0 -158 c0 -88 4 -159 8 -159 5 0 29 14 53 31 175 125 262
302 276 560 l6 116 -49 5 c-29 3 -96 26 -164 57 -63 29 -119 54 -125 57 -6 3
-9 -39 -7 -118z"/>
<path d="M8096 3894 c-59 -31 -216 -84 -249 -84 -13 0 -26 -2 -28 -4 -9 -9 10
-221 26 -290 34 -151 138 -310 252 -385 25 -17 49 -31 52 -31 3 0 6 70 6 155
l0 155 -31 0 c-52 0 -76 28 -82 92 -6 75 23 141 72 165 l36 17 0 118 c0 65 -1
118 -2 118 -2 -1 -25 -12 -52 -26z"/>
<path d="M8220 3795 c0 -108 2 -125 16 -125 9 0 31 -15 50 -34 32 -32 34 -38
34 -99 0 -76 -22 -113 -74 -122 l-33 -7 9 -51 c4 -29 5 -101 2 -161 -8 -121
-13 -116 61 -65 161 109 273 353 275 595 l0 71 -42 6 c-42 6 -186 60 -260 98
l-38 19 0 -125z"/>
<path d="M11145 3888 c-54 -34 -208 -88 -252 -88 l-26 0 6 -98 c14 -214 86
-392 207 -513 38 -38 120 -99 132 -99 2 0 3 72 3 160 l0 160 -32 0 c-48 0 -68
36 -68 121 0 61 3 71 29 98 16 17 37 33 47 36 16 5 18 22 21 131 2 78 -1 124
-7 124 -5 0 -32 -15 -60 -32z"/>
<path d="M2950 3761 c0 -93 4 -101 51 -101 l39 0 0 85 0 85 -45 0 -45 0 0 -69z"/>
<path d="M14860 3739 l0 -90 38 3 37 3 7 80 c8 88 5 95 -49 95 l-33 0 0 -91z"/>
<path d="M15080 3699 c0 -5 9 -9 20 -9 11 0 20 2 20 4 0 2 -9 6 -20 9 -11 3
-20 1 -20 -4z"/>
<path d="M3800 3659 c-40 -16 -89 -58 -107 -92 -13 -25 -17 -58 -18 -147 0
-104 3 -120 25 -164 14 -27 47 -67 74 -90 l48 -41 872 -3 c610 -2 886 0 922 8
62 13 116 61 147 129 32 69 31 228 -1 293 -30 61 -70 94 -129 106 -64 14
-1798 15 -1833 1z m1837 -111 c60 -61 55 -252 -9 -301 -22 -16 -78 -18 -896
-20 l-872 -3 -29 30 c-44 47 -51 68 -51 156 0 88 8 113 48 147 l26 22 878 -3
879 -3 26 -25z"/>
<path d="M5203 3460 c-24 -10 -43 -39 -43 -68 0 -26 44 -72 70 -72 27 0 80 52
80 78 0 46 -61 81 -107 62z"/>
<path d="M5425 3456 c-43 -31 -16 -113 43 -131 28 -8 82 42 82 77 0 53 -80 87
-125 54z"/>
<path d="M4494 3452 c-35 -23 -44 -90 -16 -115 25 -23 48 -21 66 5 39 55 -1
143 -50 110z"/>
<path d="M4636 3428 c-21 -30 -20 -71 2 -91 40 -37 81 -9 82 54 0 19 -5 40
-12 47 -19 19 -55 14 -72 -10z"/>
<path d="M4805 3425 c-31 -30 -32 -65 -2 -93 29 -28 41 -28 67 0 25 27 26 79
2 101 -25 23 -39 21 -67 -8z"/>
<path d="M4961 3424 c-25 -32 -26 -52 -5 -82 42 -61 130 21 90 83 -22 33 -59
32 -85 -1z"/>
<path d="M3946 3425 c-11 -29 -7 -63 10 -79 35 -35 124 -8 124 37 0 38 -16 50
-73 55 -44 3 -55 1 -61 -13z"/>
<path d="M4129 3416 c-16 -34 -4 -70 26 -84 35 -16 42 -15 65 8 41 41 13 100
-49 100 -24 0 -34 -6 -42 -24z"/>
<path d="M4313 3433 c-16 -6 -17 -65 -1 -81 17 -17 55 -15 62 4 3 9 6 31 6 50
0 31 -3 34 -27 33 -16 0 -34 -3 -40 -6z"/>
<path d="M1285 3645 c-38 -7 -106 -26 -150 -44 -135 -52 -375 -210 -375 -246
0 -15 56 -65 73 -65 6 0 54 29 107 64 191 127 329 176 497 176 161 0 338 -62
515 -180 49 -33 94 -60 99 -60 5 0 26 15 46 34 36 33 37 34 20 59 -20 32 -156
122 -262 175 -180 90 -386 121 -570 87z"/>
<path d="M11206 3579 c-32 -38 -33 -53 -2 -84 22 -22 29 -23 53 -14 43 16 53
29 53 65 0 23 -7 38 -22 48 -33 23 -53 20 -82 -15z"/>
<path d="M6787 3583 c-8 -10 -18 -30 -22 -45 -8 -32 23 -68 58 -68 30 0 67 39
67 72 0 50 -69 78 -103 41z"/>
<path d="M8134 3576 c-21 -33 -15 -65 18 -89 26 -19 28 -19 53 -3 61 40 48
116 -20 116 -26 0 -39 -6 -51 -24z"/>
<path d="M2957 3534 c-9 -9 -9 -100 -1 -143 6 -27 11 -31 40 -31 29 0 34 4 39
33 4 17 5 57 3 87 l-3 55 -35 3 c-20 2 -39 0 -43 -4z"/>
<path d="M14860 3445 l0 -95 40 0 40 0 0 95 0 95 -40 0 -40 0 0 -95z"/>
<path d="M15081 3493 c-1 -34 2 -41 17 -38 11 1 16 9 14 21 -5 27 -12 31 -13
8 -1 -10 -5 -3 -9 16 l-7 35 -2 -42z"/>
<path d="M15592 3489 c-26 -13 -55 -39 -70 -62 -26 -38 -27 -47 -27 -161 l0
-121 36 -56 c66 -100 -3 -93 899 -94 882 0 864 -1 932 67 48 48 64 85 73 164
14 125 -35 234 -122 271 -26 10 -188 13 -855 13 -821 0 -823 0 -866 -21z
m1704 -112 c32 -34 34 -41 34 -107 0 -77 -15 -124 -49 -155 -20 -18 -46 -20
-324 -28 -166 -5 -526 -7 -799 -5 -413 4 -499 7 -514 19 -34 28 -54 90 -54
173 0 75 1 79 33 110 l32 31 804 0 803 -1 34 -37z"/>
<path d="M17091 3304 c-29 -37 -26 -58 10 -88 60 -51 109 -19 100 64 -3 22
-40 50 -66 50 -13 0 -33 -11 -44 -26z"/>
<path d="M16877 3302 c-36 -40 -9 -112 42 -112 53 0 94 83 59 118 -19 19 -82
15 -101 -6z"/>
<path d="M15966 3284 c-21 -55 3 -94 57 -94 45 0 68 59 36 91 -24 24 -84 26
-93 3z"/>
<path d="M16196 3287 c-13 -9 -17 -23 -14 -52 3 -37 5 -40 37 -43 39 -4 51 9
51 54 0 49 -35 69 -74 41z"/>
<path d="M16344 3276 c-10 -41 0 -70 29 -86 27 -14 29 -14 48 9 21 26 25 71 7
89 -7 7 -27 12 -45 12 -26 0 -34 -5 -39 -24z"/>
<path d="M16510 3280 c-17 -32 -8 -63 22 -80 41 -22 63 -5 63 51 0 43 0 44
-37 47 -29 2 -39 -1 -48 -18z"/>
<path d="M15746 3275 c-17 -17 -20 -34 -10 -59 5 -13 22 -16 78 -16 39 0 76 4
83 8 7 4 14 23 15 42 l3 35 -76 3 c-60 2 -80 -1 -93 -13z"/>
<path d="M16672 3278 c-20 -20 -14 -65 10 -82 47 -33 88 -11 88 46 0 32 -18
48 -55 48 -17 0 -36 -5 -43 -12z"/>
<path d="M15240 3491 c0 -10 19 -25 25 -20 1 2 -3 10 -11 17 -8 7 -14 8 -14 3z"/>
<path d="M1284 3435 c-137 -30 -324 -158 -324 -222 0 -53 57 -133 95 -133 18
0 228 130 259 160 5 5 -9 4 -30 -1 -22 -6 -50 -13 -64 -15 l-25 -5 23 20 c40
35 157 64 246 62 94 -2 252 -49 282 -83 19 -21 19 -21 -6 -14 -203 55 -216 47
-73 -45 65 -42 125 -79 135 -82 9 -3 24 3 35 15 10 11 34 28 54 39 48 24 54
43 28 95 -27 56 -74 95 -174 144 -152 75 -313 97 -461 65z"/>
<path d="M2953 3224 c-2 -6 -3 -46 -1 -90 l3 -79 40 0 40 0 3 86 3 87 -42 4
c-25 2 -43 -1 -46 -8z"/>
<path d="M14858 3183 c-3 -21 -3 -62 0 -91 l5 -52 38 0 39 0 2 75 c0 41 1 81
2 88 1 7 -15 13 -40 15 -41 3 -41 3 -46 -35z"/>
<path d="M1319 3092 c-53 -28 -99 -79 -99 -112 0 -9 6 -24 13 -33 11 -15 34
-18 197 -18 102 0 190 0 197 1 6 0 17 16 23 35 10 30 9 40 -4 60 -60 92 -218
124 -327 67z"/>
<path d="M4395 3000 c-640 -6 -611 -2 -679 -82 -45 -52 -59 -145 -35 -231 17
-62 95 -137 144 -137 24 0 18 26 -21 96 -33 59 -36 71 -32 125 5 65 27 105 72
127 21 11 201 14 884 18 941 6 886 9 930 -56 25 -37 24 -24 10 -250 -3 -40 -1
-45 17 -42 31 5 83 66 96 114 15 58 6 167 -18 214 -28 55 -79 92 -142 104 -54
10 -132 10 -1226 0z"/>
<path d="M2950 2835 l0 -85 45 0 45 0 0 85 0 85 -45 0 -45 0 0 -85z"/>
<path d="M14860 2830 l0 -90 39 0 38 0 7 53 c13 116 9 127 -55 127 l-29 0 0
-90z"/>
<path d="M15645 2910 c-101 -11 -155 -84 -155 -210 0 -65 4 -79 31 -121 53
-83 51 -82 306 -77 123 3 226 8 230 12 4 4 2 15 -3 24 -10 15 -37 18 -215 22
l-203 5 -23 34 c-18 26 -23 48 -23 96 0 55 4 67 28 93 l28 29 469 5 c259 3
497 5 530 5 33 -1 186 0 339 2 l279 3 30 -30 c48 -49 51 -164 4 -214 -22 -23
-31 -25 -165 -31 -109 -5 -151 -11 -178 -25 l-37 -19 153 -6 c249 -11 254 -11
291 20 48 41 69 95 69 184 0 66 -3 81 -29 121 -54 84 10 79 -899 81 -444 1
-829 0 -857 -3z"/>
<path d="M14660 2826 c0 -14 4 -27 8 -30 5 -3 6 8 4 25 -5 35 -12 38 -12 5z"/>
<path d="M14711 2824 c0 -11 3 -14 6 -6 3 7 2 16 -1 19 -3 4 -6 -2 -5 -13z"/>
<path d="M5197 2789 c-38 -29 -37 -80 2 -119 35 -35 65 -31 92 14 44 70 -32
155 -94 105z"/>
<path d="M5436 2789 c-38 -30 -35 -69 10 -108 20 -18 41 -30 47 -28 19 6 57
68 57 92 0 27 -39 65 -67 65 -11 0 -32 -9 -47 -21z"/>
<path d="M4970 2780 c-24 -24 -25 -51 -5 -89 19 -37 39 -44 65 -23 31 26 37
85 11 111 -26 26 -45 27 -71 1z"/>
<path d="M4487 2772 c-20 -22 -23 -92 -5 -110 18 -18 56 -14 68 7 15 29 12 87
-6 105 -20 21 -37 20 -57 -2z"/>
<path d="M4647 2772 c-19 -21 -22 -73 -7 -103 6 -11 21 -19 35 -19 29 0 45 26
45 74 0 57 -41 84 -73 48z"/>
<path d="M4806 2768 c-42 -59 19 -158 63 -104 18 22 25 81 12 105 -15 28 -55
27 -75 -1z"/>
<path d="M11063 2770 c-34 -14 -32 -67 3 -80 38 -15 90 -12 104 5 14 17 5 65
-13 77 -16 10 -67 9 -94 -2z"/>
<path d="M3951 2752 c-25 -46 -5 -88 45 -98 38 -7 74 22 74 60 0 31 -20 47
-69 53 -32 4 -41 2 -50 -15z"/>
<path d="M4131 2756 c-22 -26 2 -94 35 -102 31 -8 51 10 59 51 7 39 -4 54 -46
61 -25 4 -39 1 -48 -10z"/>
<path d="M6216 2757 c-12 -9 -17 -23 -14 -42 3 -26 8 -30 37 -33 19 -2 50 -1
68 3 30 5 33 9 33 39 0 22 -6 36 -16 40 -27 10 -89 7 -108 -7z"/>
<path d="M6572 2763 c-12 -2 -27 -14 -33 -25 -17 -32 10 -52 73 -53 l53 0 0
40 c0 39 -1 40 -35 41 -19 1 -45 0 -58 -3z"/>
<path d="M7520 2763 c-14 -2 -30 -11 -37 -20 -11 -14 -14 -14 -28 1 -15 14
-56 16 -355 16 l-338 0 -5 -32 c-2 -18 -2 -37 0 -41 5 -8 847 -8 871 1 18 6
15 69 -4 76 -17 6 -63 6 -104 -1z"/>
<path d="M7755 2761 c-26 -5 -30 -10 -30 -41 l0 -35 54 -3 c58 -3 71 5 71 46
0 20 -35 45 -58 41 -4 -1 -20 -4 -37 -8z"/>
<path d="M7982 2763 c-28 -5 -36 -24 -28 -59 6 -24 10 -25 64 -22 57 3 57 3
60 37 5 48 -19 59 -96 44z"/>
<path d="M8182 2759 c-19 -7 -23 -15 -20 -41 l3 -33 63 -3 62 -3 0 39 c0 33
-4 41 -22 46 -31 8 -59 7 -86 -5z"/>
<path d="M8412 2760 c-19 -8 -23 -16 -20 -42 l3 -33 65 0 65 0 0 40 0 40 -45
2 c-25 1 -55 -2 -68 -7z"/>
<path d="M8665 2754 c-9 -9 -15 -28 -13 -43 3 -25 6 -26 71 -29 l67 -3 0 39
c0 33 -4 41 -22 46 -41 11 -86 6 -103 -10z"/>
<path d="M8907 2763 c-14 -4 -17 -13 -15 -41 l3 -37 52 -3 c50 -3 53 -2 59 24
4 15 2 34 -3 43 -10 16 -62 24 -96 14z"/>
<path d="M9148 2763 c-13 -3 -18 -15 -18 -44 l0 -40 63 3 c62 3 62 3 65 36 3
27 -1 34 -23 42 -27 10 -56 11 -87 3z"/>
<path d="M9413 2763 c-27 -5 -38 -35 -23 -63 9 -16 21 -20 65 -20 l55 0 0 35
c0 48 -27 62 -97 48z"/>
<path d="M9614 2757 c-2 -7 -6 -27 -7 -43 -2 -29 -1 -29 56 -32 67 -3 87 8 87
48 0 31 -18 40 -88 40 -26 0 -45 -5 -48 -13z"/>
<path d="M10243 2760 c-17 -7 -23 -18 -23 -39 0 -35 21 -45 86 -39 36 3 39 5
42 37 2 20 -2 37 -10 42 -17 11 -67 10 -95 -1z"/>
<path d="M10443 2763 c-19 -7 -16 -70 3 -77 22 -8 87 -7 100 2 18 12 27 64 12
73 -14 9 -95 11 -115 2z"/>
<path d="M10630 2756 c-6 -8 -10 -25 -8 -38 4 -27 46 -38 105 -29 35 6 38 9
41 44 l3 37 -64 0 c-44 0 -68 -5 -77 -14z"/>
<path d="M10841 2748 c-5 -13 -7 -30 -6 -38 2 -19 52 -32 93 -25 30 6 32 9 32
45 l0 40 -55 0 c-49 0 -57 -3 -64 -22z"/>
<path d="M11284 2756 c-14 -35 0 -61 38 -70 56 -14 90 4 86 47 -3 32 -4 32
-61 35 -43 2 -59 -1 -63 -12z"/>
<path d="M11545 2751 c-3 -10 -1 -30 4 -45 9 -22 17 -26 50 -26 46 0 67 25 57
66 -6 21 -12 24 -56 24 -39 0 -50 -4 -55 -19z"/>
<path d="M11772 2758 c-16 -16 -15 -53 2 -67 8 -7 34 -11 58 -9 36 3 44 7 52
30 13 38 -6 58 -58 58 -23 0 -47 -5 -54 -12z"/>
<path d="M4302 2719 c2 -27 9 -46 21 -53 28 -18 52 4 55 53 l3 41 -41 0 -41 0
3 -41z"/>
<path d="M6397 2746 c-12 -29 4 -55 38 -62 54 -10 77 2 73 39 -3 31 -5 32 -54
35 -38 2 -53 -1 -57 -12z"/>
<path d="M10051 2751 c-9 -6 -11 -18 -7 -35 5 -22 12 -26 41 -26 28 0 38 5 47
26 10 21 9 27 -3 35 -18 11 -60 11 -78 0z"/>
<path d="M17092 2738 c-7 -7 -12 -21 -12 -31 0 -29 30 -86 51 -97 46 -25 82
86 41 123 -22 20 -63 22 -80 5z"/>
<path d="M16892 2717 c-29 -31 -28 -62 3 -93 24 -24 28 -25 48 -11 12 8 29 26
37 41 13 23 13 29 0 54 -21 36 -59 40 -88 9z"/>
<path d="M582 2718 c-20 -20 -14 -48 13 -60 22 -10 29 -9 46 9 17 17 19 24 10
42 -13 23 -50 28 -69 9z"/>
<path d="M741 2711 c-15 -27 -4 -50 27 -58 34 -8 57 8 57 43 0 26 -4 29 -37
32 -28 2 -39 -1 -47 -17z"/>
<path d="M923 2723 c-20 -7 -15 -51 5 -62 29 -16 76 1 80 29 2 12 -2 27 -10
31 -14 9 -55 11 -75 2z"/>
<path d="M1100 2702 c0 -37 20 -54 57 -50 25 3 28 7 28 38 0 34 -1 35 -42 38
-42 3 -43 2 -43 -26z"/>
<path d="M1302 2722 c-8 -5 -12 -20 -10 -33 3 -21 9 -24 53 -27 39 -2 55 2 71
17 12 10 30 21 40 25 10 3 2 4 -18 3 -21 -2 -39 1 -41 6 -4 12 -80 19 -95 9z"/>
<path d="M1602 2718 c-6 -6 -12 -20 -12 -30 0 -29 32 -39 93 -29 5 0 7 16 5
34 -3 29 -7 32 -38 35 -19 2 -41 -3 -48 -10z"/>
<path d="M1798 2719 c-46 -26 8 -91 60 -73 30 10 41 46 22 70 -14 16 -57 18
-82 3z"/>
<path d="M2006 2717 c-14 -10 -15 -18 -7 -40 8 -21 17 -27 40 -27 16 0 36 3
45 6 19 7 21 45 4 62 -16 16 -60 15 -82 -1z"/>
<path d="M2223 2720 c-25 -10 -28 -22 -13 -51 19 -34 90 -22 90 15 0 41 -30
55 -77 36z"/>
<path d="M16516 2704 c-19 -48 11 -99 55 -92 29 4 46 50 30 84 -8 19 -18 24
-45 24 -22 0 -36 -6 -40 -16z"/>
<path d="M15747 2703 c-14 -4 -17 -13 -15 -36 l3 -32 70 -3 c79 -2 91 2 100
39 6 23 3 27 -26 33 -35 7 -104 6 -132 -1z"/>
<path d="M16184 2696 c-3 -8 -4 -29 -2 -47 2 -26 9 -34 31 -40 19 -5 32 -3 42
8 18 17 20 64 3 81 -17 17 -67 15 -74 -2z"/>
<path d="M16350 2685 c-14 -38 7 -79 42 -83 22 -3 29 2 33 21 4 14 5 38 3 53
-2 25 -8 29 -36 32 -27 3 -34 -1 -42 -23z"/>
<path d="M16693 2703 c-7 -2 -13 -20 -13 -39 0 -28 5 -36 26 -44 36 -14 54 3
54 51 0 36 -2 39 -27 38 -16 0 -34 -3 -40 -6z"/>
<path d="M15974 2686 c-11 -28 5 -62 33 -75 24 -11 29 -10 41 6 7 10 12 32 10
48 -3 27 -7 30 -41 33 -26 2 -39 -1 -43 -12z"/>
<path d="M2955 2548 c4 -46 7 -122 5 -170 l-2 -88 38 0 37 0 -6 67 c-4 38 -11
69 -17 71 -15 5 -12 29 5 36 12 4 15 24 15 86 l0 80 -41 0 -42 0 8 -82z m32
-120 c-3 -8 -6 -5 -6 6 -1 11 2 17 5 13 3 -3 4 -12 1 -19z"/>
<path d="M14860 2526 c0 -92 8 -104 55 -86 24 9 25 13 25 90 l0 80 -40 0 -40
0 0 -84z"/>
<path d="M16345 2409 c-41 -12 -101 -71 -155 -154 -43 -67 -45 -72 -45 -146 0
-100 14 -120 125 -178 103 -54 188 -65 286 -36 141 40 191 101 182 220 -5 52
-14 75 -58 148 -28 48 -65 96 -82 108 -60 43 -176 61 -253 38z"/>
<path d="M952 2381 l-334 -6 -34 -37 -34 -38 -1 -472 c-1 -260 0 -489 1 -508
3 -48 25 -87 63 -110 30 -19 52 -20 310 -20 221 0 277 -3 277 -13 0 -7 -11
-44 -23 -83 -27 -77 -32 -81 -138 -83 -60 -1 -69 -8 -69 -57 l0 -24 415 0 415
0 0 39 0 39 -59 7 -59 7 -26 73 c-14 40 -26 76 -26 79 0 3 17 6 39 6 21 0 59
3 85 6 47 7 47 7 44 43 l-3 36 -559 2 c-533 2 -561 3 -579 21 -21 22 -38 83
-30 112 4 16 14 20 47 21 22 0 287 1 588 1 l546 1 4 88 c3 97 13 118 82 173
l38 31 188 0 188 0 -4 170 c-2 94 -6 231 -8 305 l-5 135 -30 27 -31 28 -309 0
c-169 0 -382 2 -472 3 -90 2 -314 1 -497 -2z m578 -32 c136 -31 241 -112 301
-234 72 -144 64 -279 -22 -420 -42 -67 -72 -89 -187 -138 -94 -40 -100 -42
-207 -42 -194 1 -317 56 -392 180 -100 162 -107 252 -33 418 69 156 144 211
320 237 80 11 169 11 220 -1z"/>
<path d="M1584 2226 c25 -37 46 -74 46 -82 0 -19 4 -18 51 12 l41 26 -23 25
c-29 30 -94 69 -132 79 l-29 7 46 -67z"/>
<path d="M1186 2260 c-45 -18 -96 -55 -96 -70 0 -4 22 -19 50 -34 49 -27 70
-27 70 -1 0 7 13 38 29 69 34 65 29 68 -53 36z"/>
<path d="M1437 2183 c3 -49 6 -89 7 -89 2 -4 121 17 125 22 8 7 -40 87 -72
122 -17 17 -39 32 -48 32 -15 0 -16 -10 -12 -87z"/>
<path d="M1319 2208 c-17 -24 -37 -55 -45 -69 l-13 -27 59 -15 60 -15 0 84 c0
100 -12 108 -61 42z"/>
<path d="M1035 2083 c-27 -64 -37 -108 -33 -148 3 -43 7 -45 114 -58 l41 -5
11 87 c6 47 12 92 14 99 2 8 -23 21 -65 36 l-68 23 -14 -34z"/>
<path d="M1700 2092 c-30 -15 -54 -32 -53 -39 1 -6 5 -48 9 -92 l7 -81 41 0
c23 0 58 3 79 6 l37 7 -1 51 c0 53 -36 167 -54 172 -5 2 -35 -9 -65 -24z"/>
<path d="M1505 2042 l-70 -15 0 -101 0 -101 63 -7 c34 -4 71 -9 81 -13 16 -5
19 3 25 58 3 35 4 77 2 93 -3 16 -8 46 -11 67 -3 20 -9 36 -13 36 -4 -1 -38
-9 -77 -17z"/>
<path d="M1237 2028 c-13 -53 -19 -141 -13 -181 l7 -43 62 9 c34 5 67 10 72
12 6 1 9 42 7 103 -4 112 1 105 -83 117 -43 5 -47 4 -52 -17z"/>
<path d="M1020 1836 c1 -20 36 -90 53 -104 13 -11 19 -10 36 7 12 12 32 21 46
21 28 0 30 8 13 45 -8 19 -19 25 -42 25 -17 0 -48 4 -68 9 -27 6 -38 6 -38 -3z"/>
<path d="M1722 1839 c-55 -11 -62 -15 -62 -44 0 -15 14 -34 40 -55 39 -31 42
-32 60 -15 23 21 50 76 50 104 0 23 -14 25 -88 10z"/>
<path d="M1434 1754 c3 -9 6 -54 6 -100 0 -84 0 -85 23 -78 12 3 30 13 40 22
18 16 77 119 77 134 0 12 -37 24 -98 31 -46 5 -53 4 -48 -9z"/>
<path d="M1278 1753 c-16 -2 -28 -8 -28 -12 0 -16 52 -126 67 -143 9 -10 27
-18 40 -18 20 0 23 5 23 38 0 20 -3 61 -6 90 -7 51 -8 52 -38 51 -17 -1 -43
-4 -58 -6z"/>
<path d="M1163 1693 c-28 -19 -31 -38 -4 -23 30 16 36 12 16 -10 -10 -11 -16
-22 -14 -23 23 -18 79 -47 79 -41 0 15 -43 114 -49 113 -3 0 -16 -7 -28 -16z"/>
<path d="M1608 1653 c-9 -26 -16 -48 -15 -49 7 -7 68 28 73 41 6 14 -20 55
-35 55 -3 0 -14 -21 -23 -47z"/>
<path d="M5332 2343 l-39 -38 -6 -165 c-3 -91 -5 -321 -4 -512 3 -473 -29
-436 385 -442 162 -2 295 -6 297 -8 2 -2 -9 -38 -23 -80 l-26 -78 -76 0 c-41
0 -81 -4 -89 -9 -7 -5 -14 -26 -15 -47 l-1 -39 460 0 460 0 -2 34 c0 18 -6 38
-13 45 -6 6 -45 11 -92 12 l-81 0 -22 79 c-17 59 -20 82 -12 87 7 4 132 8 278
8 259 0 267 1 299 23 19 12 43 38 54 57 20 34 21 49 20 533 -1 399 -4 503 -15
523 -29 56 0 54 -883 54 l-815 0 -39 -37z m531 -234 c27 -14 77 -60 77 -71 0
-4 -14 -15 -31 -24 -31 -16 -32 -15 -61 16 -26 29 -33 31 -66 25 -80 -15 -112
-57 -112 -151 0 -68 19 -103 70 -129 40 -21 62 -19 104 10 42 28 68 32 85 11
9 -11 5 -21 -21 -49 -61 -65 -146 -70 -229 -14 -88 59 -113 180 -58 288 17 34
66 79 99 92 27 10 121 7 143 -4z m359 1 c85 -24 138 -101 138 -200 0 -75 -16
-116 -63 -157 -43 -38 -79 -49 -178 -57 -65 -6 -78 -4 -83 10 -8 20 -8 377 0
398 5 13 22 16 78 16 39 0 88 -5 108 -10z m323 -52 c31 -34 78 -92 103 -130
25 -37 48 -68 51 -68 3 0 5 39 3 87 -2 48 -1 107 3 130 6 39 9 43 36 43 l29 0
0 -192 c0 -106 -4 -199 -9 -207 -17 -27 -51 2 -143 122 l-93 122 -5 -130 -5
-130 -26 -3 c-36 -4 -39 17 -39 239 0 213 3 216 95 117z m238 -638 l220 0 -5
-51 c-4 -34 -12 -58 -27 -72 -26 -27 2 -26 -881 -28 l-654 -1 -28 31 c-22 24
-28 41 -28 76 l0 45 338 3 c185 2 451 2 591 0 140 -1 353 -3 474 -3z"/>
<path d="M6104 2048 c-3 -5 -4 -70 -2 -145 l3 -135 59 5 c50 5 64 10 93 39 43
43 52 92 29 152 -9 25 -29 52 -44 62 -30 20 -130 35 -138 22z"/>
<path d="M6159 1383 c-9 -2 -22 -15 -29 -28 -11 -20 -10 -28 4 -50 29 -44 96
-22 96 33 0 18 -35 54 -50 51 -3 -1 -12 -3 -21 -6z"/>
<path d="M7709 2358 c-59 -36 -59 -32 -59 -550 0 -315 4 -486 11 -513 6 -22
26 -54 46 -72 l34 -33 132 -1 c73 -1 202 -4 288 -8 l156 -6 -22 -75 -22 -75
-74 -7 c-41 -5 -79 -10 -85 -12 -14 -5 -27 -67 -16 -78 4 -4 210 -8 457 -8
l450 -1 3 45 c3 44 2 45 -30 51 -18 3 -62 4 -97 3 l-64 -3 -18 73 c-10 40 -21
77 -24 81 -8 14 47 18 313 20 155 1 264 7 276 13 41 21 76 63 87 103 7 26 11
199 10 508 -1 515 0 508 -64 547 -30 19 -58 19 -845 17 -748 -2 -817 -3 -843
-19z m1215 -335 c34 -46 77 -105 96 -133 l35 -49 5 137 5 137 25 0 25 0 3
-186 c2 -174 1 -187 -17 -203 -19 -18 -21 -17 -52 15 -17 19 -63 77 -102 129
l-72 95 -6 -123 c-4 -94 -9 -127 -22 -139 -13 -13 -19 -14 -31 -3 -14 10 -16
44 -16 215 0 186 2 204 18 207 24 6 37 -6 106 -99z m-662 61 c23 -16 43 -34
45 -40 2 -6 -12 -19 -31 -29 l-35 -19 -21 27 c-17 21 -30 27 -59 27 -70 0
-121 -62 -121 -147 0 -66 26 -114 74 -137 l39 -19 52 28 c79 42 127 16 71 -40
-56 -56 -174 -55 -237 2 -52 47 -72 104 -67 192 3 60 8 75 34 108 72 88 171
107 256 47z m345 13 c46 -24 81 -71 99 -135 24 -83 9 -153 -45 -204 -46 -44
-92 -58 -188 -58 l-73 0 0 211 0 212 88 -5 c52 -3 100 -12 119 -21z m752 -677
c22 0 9 -96 -18 -124 l-21 -23 -499 -6 c-274 -4 -617 -4 -762 0 l-264 6 -27
28 c-22 22 -28 37 -28 73 l0 46 353 3 c193 1 555 1 802 0 248 -2 456 -4 464
-3z"/>
<path d="M8470 1907 l0 -145 43 5 c94 11 127 44 127 133 0 90 -38 137 -119
147 l-51 6 0 -146z"/>
<path d="M8517 1378 c-9 -7 -19 -25 -22 -39 -5 -21 -1 -30 16 -43 13 -9 31
-16 40 -16 38 0 65 70 37 98 -16 16 -50 15 -71 0z"/>
<path d="M10596 2363 c-13 -7 -32 -25 -42 -40 -18 -27 -19 -55 -20 -531 -1
-496 -1 -504 20 -534 12 -17 34 -41 49 -52 27 -20 40 -21 313 -21 156 0 284
-4 284 -8 0 -5 -10 -42 -21 -82 l-21 -73 -84 -4 c-47 -2 -88 -9 -93 -14 -5 -5
-12 -26 -15 -47 l-7 -37 461 0 460 0 0 38 c0 55 -12 62 -106 62 l-82 0 -26 77
c-14 42 -23 79 -20 82 3 3 140 8 304 11 l298 5 28 25 c14 14 35 43 45 65 17
37 19 73 18 490 0 248 -4 472 -8 500 -7 38 -16 56 -42 78 l-34 28 -818 -3
c-614 -2 -824 -6 -841 -15z m495 -254 c38 -13 99 -55 99 -69 0 -4 -15 -17 -33
-27 l-33 -20 -26 29 c-32 35 -81 37 -129 5 -90 -61 -70 -228 32 -259 39 -11
45 -10 91 15 41 23 51 25 68 15 26 -16 25 -30 -2 -55 -38 -35 -64 -43 -131
-43 -55 0 -70 4 -104 29 -60 44 -86 105 -81 191 3 57 9 77 33 111 52 74 136
104 216 78z m409 -23 c68 -45 94 -89 98 -167 5 -89 -1 -111 -44 -159 -43 -48
-75 -58 -184 -62 l-85 -3 -3 214 -2 214 91 -6 c75 -5 98 -10 129 -31z m283
-18 c24 -29 67 -88 95 -130 29 -42 56 -79 62 -83 6 -4 10 30 10 98 0 58 3 119
6 136 6 27 11 32 33 29 l26 -3 3 -181 c3 -188 -4 -234 -35 -234 -18 0 -81 76
-162 198 -23 34 -45 62 -49 62 -4 0 -7 -56 -7 -125 0 -130 -6 -149 -45 -142
-12 2 -16 35 -23 191 -5 104 -6 199 -3 212 10 39 41 29 89 -28z m462 -696 c-1
-39 -6 -57 -23 -75 l-22 -24 -553 -5 c-303 -3 -651 -3 -771 1 l-219 6 -19 25
c-23 31 -34 95 -20 113 9 10 174 12 819 12 l808 -1 0 -52z"/>
<path d="M11350 1905 l0 -147 53 7 c62 9 79 17 106 51 26 33 28 111 6 157 -22
44 -54 65 -114 73 l-51 7 0 -148z"/>
<path d="M11380 1361 c-23 -45 -5 -81 40 -81 47 0 78 58 48 88 -20 20 -76 15
-88 -7z"/>
<path d="M12809 2353 c-50 -42 -50 -44 -47 -578 l3 -500 28 -36 c15 -20 40
-42 55 -48 19 -8 114 -11 305 -9 152 2 277 0 277 -3 0 -9 -30 -112 -42 -141
-10 -27 -13 -28 -87 -28 -47 0 -82 -5 -89 -12 -16 -16 -15 -75 1 -80 24 -9
892 -8 906 1 10 6 12 20 8 46 -3 21 -8 40 -11 42 -3 3 -44 7 -92 9 -48 2 -89
6 -91 8 -2 2 -14 38 -27 80 l-24 76 269 0 c204 0 278 3 302 14 43 17 95 78
102 118 3 18 5 247 3 508 -3 516 -1 497 -60 538 -21 16 -95 17 -843 17 l-819
0 -27 -22z m577 -265 c26 -18 49 -38 51 -44 5 -17 -70 -71 -75 -55 -9 28 -43
51 -75 51 -60 0 -107 -69 -107 -156 0 -66 22 -101 72 -116 38 -11 45 -10 88
14 40 22 51 25 70 15 35 -18 34 -33 -3 -61 -58 -44 -156 -52 -213 -16 -32 20
-72 86 -79 132 -17 98 33 204 115 246 61 31 98 28 156 -10z m324 10 c72 -27
120 -108 120 -204 0 -125 -50 -176 -188 -195 -45 -6 -88 -9 -96 -6 -10 4 -14
54 -19 208 -4 111 -4 206 0 212 6 11 144 0 183 -15z m298 -55 c32 -43 78 -107
103 -143 l44 -65 5 140 5 140 25 0 25 0 8 -160 c10 -221 0 -278 -46 -242 -19
15 -99 114 -152 187 l-40 55 -5 -123 c-4 -94 -8 -125 -20 -132 -43 -27 -50 4
-50 224 0 188 1 196 20 196 12 0 40 -27 78 -77z m460 -627 c12 -12 -11 -100
-32 -121 -22 -22 -24 -22 -476 -27 -250 -2 -594 -2 -763 1 -307 6 -309 6 -327
29 -20 24 -36 103 -26 121 7 11 1613 7 1624 -3z"/>
<path d="M13594 1994 c3 -26 6 -89 6 -142 l0 -94 48 7 c26 3 58 13 70 22 34
21 55 79 48 126 -14 86 -58 127 -137 127 l-42 0 7 -46z"/>
<path d="M13626 1364 c-19 -18 -21 -55 -4 -72 15 -15 53 -16 79 -2 22 12 26
59 7 78 -17 17 -64 15 -82 -4z"/>
<path d="M3315 2351 c-17 -10 -39 -31 -49 -46 -17 -26 -18 -54 -11 -529 l8
-501 41 -41 41 -42 262 -3 c144 -2 264 -6 267 -9 2 -3 -5 -41 -18 -85 l-23
-80 -81 -3 c-70 -2 -83 -6 -92 -23 -6 -11 -10 -30 -8 -42 2 -18 12 -23 48 -29
76 -11 809 -9 831 2 10 6 19 21 19 33 0 44 -14 52 -105 56 -71 2 -85 6 -85 20
0 9 -11 46 -23 82 l-23 66 96 7 c52 3 171 6 263 6 184 0 199 4 252 60 l30 31
-4 502 c-3 406 -6 507 -17 529 -31 60 -2 58 -831 58 -721 0 -759 -1 -788 -19z
m492 -242 c27 -10 83 -56 83 -69 0 -3 -14 -14 -31 -24 -30 -18 -30 -18 -54 8
-36 39 -87 36 -131 -8 -32 -32 -34 -37 -34 -106 0 -69 2 -74 34 -106 41 -41
101 -48 131 -14 22 24 58 26 76 4 11 -14 9 -20 -18 -45 -121 -107 -298 -14
-296 155 1 147 122 250 240 205z m372 -14 c91 -47 133 -165 97 -268 -29 -79
-84 -112 -205 -123 -65 -5 -85 -4 -91 7 -5 7 -9 103 -10 212 l-1 200 92 -7
c51 -4 104 -13 118 -21z m273 -32 c32 -32 77 -89 102 -128 l45 -70 3 120 c3
114 4 120 24 123 28 4 32 -15 40 -203 5 -126 4 -153 -9 -170 -15 -19 -17 -19
-62 30 -26 28 -69 83 -96 123 -27 39 -54 72 -59 72 -4 0 -6 -33 -3 -72 2 -40
1 -98 -4 -128 -7 -49 -11 -55 -32 -55 -19 0 -27 7 -33 30 -8 28 -1 344 7 373
7 21 19 14 77 -45z m416 -643 c1 0 2 -25 2 -55 0 -95 17 -91 -378 -99 -188 -4
-513 -4 -722 0 -376 7 -380 7 -401 30 -14 15 -21 37 -22 70 l-2 49 305 6 c216
4 1155 4 1218 -1z"/>
<path d="M4040 1911 l0 -141 35 0 c48 0 97 22 123 55 42 53 21 174 -35 203
-10 5 -42 13 -70 17 l-53 7 0 -141z"/>
<path d="M4062 1368 c-29 -29 -2 -88 39 -88 54 0 78 49 41 83 -22 20 -63 22
-80 5z"/>
<path d="M14865 2332 c-8 -9 -6 -66 4 -81 6 -9 18 -11 35 -7 23 6 26 12 26 46
0 22 -3 41 -7 41 -29 5 -53 5 -58 1z"/>
<path d="M15258 2243 c7 -3 16 -2 19 1 4 3 -2 6 -13 5 -11 0 -14 -3 -6 -6z"/>
<path d="M2962 2093 l3 -68 35 0 35 0 -2 59 c-1 32 -3 60 -5 61 -2 1 -18 6
-36 10 l-33 7 3 -69z"/>
<path d="M14854 2106 c-3 -7 -4 -35 -2 -62 l3 -49 40 0 40 0 3 48 c2 27 -2 55
-9 63 -15 18 -68 18 -75 0z"/>
<path d="M2977 1851 c-3 -11 -2 -22 1 -25 9 -10 32 -7 32 4 0 5 -8 7 -17 4
-17 -5 -17 -5 -1 9 10 8 15 17 11 20 -11 12 -21 7 -26 -12z"/>
<path d="M7320 1834 c-49 -44 -51 -71 -9 -119 43 -49 83 -48 132 2 46 45 50
91 12 128 -37 38 -85 34 -135 -11z"/>
<path d="M10259 1829 c-33 -35 -37 -73 -13 -107 20 -29 68 -29 111 1 41 27 50
55 29 95 -27 53 -83 58 -127 11z"/>
<path d="M9590 1811 c-15 -29 -12 -68 6 -75 27 -10 99 -7 112 6 7 7 12 24 12
38 0 38 -18 50 -72 50 -37 0 -50 -4 -58 -19z"/>
<path d="M15573 1756 c-37 -17 -49 -36 -58 -97 -5 -31 -2 -57 8 -82 29 -67 11
-65 639 -68 l566 -2 61 54 c34 29 61 55 61 57 0 1 -278 2 -617 2 l-618 -2 -3
26 c-3 20 2 27 22 32 14 3 335 1 713 -6 729 -12 836 -12 859 -3 8 3 30 2 50
-1 29 -6 35 -11 32 -29 -3 -20 -9 -22 -55 -22 -29 1 -50 -2 -45 -5 4 -4 30
-25 58 -48 l51 -41 29 30 c55 58 34 160 -42 199 -43 22 -1662 28 -1711 6z"/>
<path d="M17090 1640 c14 -4 39 -8 55 -9 23 0 26 2 15 9 -8 5 -33 9 -55 9 -35
-1 -37 -2 -15 -9z"/>
<path d="M1915 1597 l-35 -35 6 -364 6 -363 29 -27 29 -28 191 0 c151 0 196 3
219 15 17 9 31 19 31 23 1 4 3 177 4 384 l2 377 -24 23 c-24 22 -32 23 -224
26 l-199 4 -35 -35z m375 -92 c7 -8 9 -22 6 -31 -6 -15 -21 -16 -139 -11 -139
6 -170 12 -164 31 5 16 57 23 178 25 83 1 109 -2 119 -14z m-85 -199 c52 -22
68 -55 63 -126 -5 -75 -24 -96 -99 -112 -49 -10 -60 -9 -94 8 -54 27 -80 66
-79 118 2 101 104 156 209 112z m84 -382 c27 -6 32 -11 29 -33 l-3 -26 -167
-3 -168 -2 0 35 0 35 139 0 c76 0 153 -3 170 -6z"/>
<path d="M2090 1225 c-16 -19 -5 -62 19 -75 45 -24 102 37 71 75 -16 19 -74
19 -90 0z"/>
<path d="M14860 1591 c0 -28 5 -40 18 -43 31 -8 42 3 41 40 l-1 37 -8 -30 c-7
-29 -8 -29 -10 -5 -2 24 -3 24 -10 -5 -8 -30 -8 -30 -9 8 -1 49 -21 48 -21 -2z"/>
<path d="M3012 1580 c0 -14 2 -19 5 -12 2 6 2 18 0 25 -3 6 -5 1 -5 -13z"/>
<path d="M2970 1548 c0 -13 7 -18 28 -17 21 1 22 2 7 6 -11 3 -23 10 -27 17
-5 7 -8 5 -8 -6z"/>
<path d="M16912 1536 c-164 -53 -274 -249 -242 -428 18 -98 62 -172 134 -223
87 -61 146 -78 255 -73 74 3 99 9 154 36 73 36 103 70 150 170 29 60 32 76 32
157 0 82 -3 97 -32 156 -39 79 -97 136 -185 180 -52 27 -76 33 -143 36 -50 2
-96 -2 -123 -11z m252 -130 c29 -17 60 -48 83 -82 34 -52 37 -62 41 -145 4
-81 2 -94 -22 -143 -61 -126 -232 -170 -363 -96 -87 50 -133 129 -132 227 1
104 51 190 142 244 48 28 58 30 128 26 61 -3 86 -9 123 -31z"/>
<path d="M16924 1328 c-119 -105 -89 -289 56 -339 67 -24 186 23 211 84 14 32
7 194 -10 225 -14 26 -113 62 -172 62 -40 0 -54 -5 -85 -32z m139 -78 c33 -26
42 -72 24 -130 -13 -47 -29 -57 -73 -46 -64 17 -72 154 -10 184 29 15 30 15
59 -8z"/>
<path d="M15544 1407 c-23 -20 -28 -34 -32 -83 -5 -67 23 -162 59 -200 28 -30
66 -32 587 -38 l422 -4 0 77 0 76 -467 -5 c-258 -3 -476 -4 -486 -2 -14 4 -17
13 -15 46 l3 41 170 -2 c94 -2 314 -6 491 -9 l321 -7 21 47 c28 58 28 72 0 80
-13 3 -253 6 -535 6 l-512 0 -27 -23z"/>
<path d="M1377 1372 c-22 -24 -21 -55 1 -75 37 -34 82 -15 82 34 0 52 -51 77
-83 41z"/>
<path d="M14871 1344 c-1 -48 1 -52 24 -56 24 -5 25 -3 24 41 0 35 -2 41 -9
26 -8 -18 -9 -18 -10 5 l-2 25 -8 -25 -7 -25 -5 30 c-4 21 -5 15 -7 -21z"/>
<path d="M15540 990 c-30 -30 -30 -89 0 -131 16 -23 23 -46 29 -90 1 -4 8 -10
17 -13 43 -17 83 51 58 100 -8 15 -11 30 -7 34 4 3 60 3 123 -2 63 -4 158 -8
210 -9 75 -1 88 -3 60 -9 -21 -6 61 -8 210 -5 135 2 295 0 355 -5 61 -4 112
-6 114 -4 2 2 -3 12 -12 22 -9 10 -29 42 -45 72 l-30 55 -531 3 c-520 2 -531
2 -551 -18z"/>
<path d="M695 872 c-24 -2 -39 -16 -72 -63 -49 -67 -53 -91 -20 -107 44 -22
301 -34 765 -35 458 -2 474 -1 488 17 20 28 18 34 -21 53 -33 16 -35 20 -35
64 0 26 -5 51 -12 55 -6 4 -244 9 -527 11 -284 2 -520 4 -526 6 -5 1 -23 1
-40 -1z m203 -82 c35 1 52 -3 52 -11 0 -9 5 -8 18 2 14 11 58 14 222 12 113
-1 212 -2 220 -2 8 0 41 2 73 5 31 3 57 2 57 -3 0 -4 3 -19 7 -32 l6 -24 -99
7 c-54 3 -210 6 -346 7 -136 0 -248 4 -250 9 -2 5 -28 2 -58 -6 -95 -25 -122
-15 -83 29 15 16 26 18 73 13 30 -4 79 -6 108 -6z m810 -2 c7 -7 12 -22 12
-35 0 -21 -4 -23 -55 -23 -54 0 -55 1 -55 28 0 16 3 32 7 35 11 12 78 8 91 -5z"/>
<path d="M6875 869 c-27 -5 -364 -8 -748 -6 l-697 3 -60 -90 c-33 -50 -60 -98
-60 -107 0 -9 10 -19 23 -22 12 -3 349 -6 749 -6 583 0 728 3 737 13 8 9 24
11 58 5 27 -4 83 -8 127 -8 l79 -1 -6 35 c-7 43 -81 171 -107 185 -21 11 -25
11 -95 -1z m7 -65 c22 -7 68 -61 68 -80 0 -12 -14 -14 -65 -13 -62 2 -65 3
-85 36 -11 19 -22 44 -26 57 -5 23 -5 24 43 15 26 -5 56 -12 65 -15z m-1241
-14 c49 0 59 -3 59 -17 1 -17 1 -17 11 0 8 14 24 17 90 17 86 0 101 -9 79 -50
-11 -21 -17 -22 -94 -16 -44 3 -109 6 -143 5 -42 0 -63 4 -63 12 0 9 -3 9 -14
0 -8 -7 -38 -11 -72 -9 l-57 3 28 34 c27 31 32 33 73 27 25 -3 71 -6 103 -6z
m887 1 c8 -5 12 -21 10 -37 -3 -26 -7 -29 -45 -32 -43 -3 -43 -3 -43 31 0 18
3 37 7 40 9 10 55 8 71 -2z m138 -16 c22 -33 12 -55 -25 -55 -45 0 -61 10 -61
36 0 16 8 28 23 34 35 14 45 12 63 -15z m-642 9 c9 -3 16 -17 16 -30 0 -18 -7
-24 -34 -29 -18 -4 -44 -5 -57 -3 -23 3 -27 17 -14 56 5 12 61 17 89 6z m174
-26 c-3 -28 -7 -34 -32 -36 -50 -6 -96 7 -96 26 0 30 22 42 78 42 l53 0 -3
-32z m202 3 c0 -32 -17 -41 -86 -41 -43 0 -54 10 -54 51 0 17 8 19 70 19 l70
0 0 -29z"/>
<path d="M10637 832 c-43 -59 -87 -142 -87 -163 0 -9 7 -20 16 -23 9 -3 344
-6 745 -6 688 0 729 1 729 18 0 29 -20 94 -47 152 l-26 55 -576 0 c-317 0
-608 3 -648 8 l-71 7 -35 -48z m164 -36 c28 -9 51 -11 60 -5 8 5 27 9 42 9 26
0 28 -3 25 -32 l-3 -33 -75 0 c-41 0 -95 -4 -119 -9 -42 -8 -43 -8 -36 15 7
24 43 69 54 69 3 0 27 -6 52 -14z m1107 -38 c3 -36 2 -38 -28 -38 -41 0 -70
16 -70 38 0 29 22 43 60 40 33 -3 35 -6 38 -40z m-778 13 c17 -33 12 -38 -50
-44 -71 -8 -90 -2 -90 27 0 33 7 36 71 36 47 0 60 -4 69 -19z m198 -2 c6 -31
-26 -49 -88 -49 -64 0 -75 8 -66 46 6 24 9 25 79 22 57 -2 72 -6 75 -19z m142
-9 l0 -30 -60 0 c-56 0 -60 1 -60 23 0 33 7 37 67 37 52 0 53 0 53 -30z m199
24 c49 -6 61 -10 61 -24 0 -25 -20 -30 -116 -30 l-84 0 0 30 c0 28 2 30 39 30
21 0 66 -3 100 -6z m109 -22 c3 -17 -2 -22 -17 -22 -22 0 -25 8 -15 35 9 22
28 14 32 -13z"/>
<path d="M12190 873 c-34 -12 -60 -47 -60 -79 0 -37 51 -111 90 -131 65 -33
160 -1 160 53 0 67 -86 165 -143 163 -18 0 -39 -3 -47 -6z"/>
<path d="M7736 820 c-55 -77 -98 -165 -83 -171 1 0 347 -3 770 -5 693 -5 767
-4 767 11 0 19 -42 142 -62 178 l-14 27 -672 3 -673 4 -33 -47z m161 -36 c3
-9 9 -11 12 -6 3 5 30 12 59 15 58 7 73 -5 52 -42 -9 -17 -20 -21 -65 -21 -45
0 -55 3 -55 17 0 15 -1 15 -12 1 -14 -17 -85 -32 -92 -19 -3 4 4 22 14 39 15
25 27 32 50 32 19 0 33 -6 37 -16z m846 -4 c5 -4 7 -18 5 -31 -3 -21 -9 -24
-55 -27 l-53 -3 0 35 c0 19 6 37 13 39 15 7 79 -3 90 -13z m308 -7 c16 -43 5
-54 -48 -51 -46 3 -48 4 -46 32 3 34 17 46 56 46 21 0 30 -7 38 -27z m-654 -3
c7 -39 -10 -43 -164 -44 -143 -1 -148 0 -145 19 6 43 6 43 159 42 123 -2 148
-5 150 -17z m193 -10 l0 -30 -85 0 c-89 0 -105 8 -91 45 4 12 24 15 91 15 l85
0 0 -30z m310 1 c0 -38 -11 -45 -66 -36 -41 6 -44 9 -44 36 0 29 1 29 55 29
54 0 55 0 55 -29z"/>
<path d="M9286 849 c-41 -32 -30 -95 26 -145 36 -33 62 -44 113 -46 38 -1 51
3 72 25 l26 26 -18 46 c-9 26 -33 62 -51 81 -31 30 -41 34 -88 34 -39 0 -60
-6 -80 -21z"/>
<path d="M14316 847 c-17 -13 -17 -15 -2 -46 26 -50 52 -71 89 -71 63 0 77 52
28 101 -33 32 -83 39 -115 16z"/>
<path d="M3293 835 c-55 -39 6 -100 81 -81 27 7 53 63 37 79 -18 18 -95 19
-118 2z"/>
<path d="M4776 834 c-50 -49 33 -105 103 -70 35 19 40 45 13 69 -24 22 -95 22
-116 1z"/>
<path d="M12843 838 c-30 -14 -40 -58 -17 -75 29 -21 79 -16 112 12 35 30 49
31 82 8 20 -14 49 -18 155 -19 72 0 152 -4 178 -9 41 -6 53 -4 77 13 28 21 28
21 53 2 33 -27 96 -26 130 0 18 14 28 17 33 9 11 -19 75 -40 103 -34 34 7 80
73 59 86 -7 5 -150 9 -318 10 -168 1 -377 3 -465 4 -89 1 -170 -2 -182 -7z"/>
<path d="M3527 833 c-11 -11 -8 -58 5 -71 7 -7 29 -12 50 -12 41 0 58 19 58
64 0 25 -3 26 -53 26 -30 0 -57 -3 -60 -7z"/>
<path d="M3763 833 c-25 -5 -38 -45 -23 -73 15 -28 85 -28 100 -1 18 34 12 61
-16 71 -14 6 -28 9 -32 9 -4 -1 -17 -4 -29 -6z"/>
<path d="M3967 833 c-26 -4 -28 -8 -25 -41 l3 -37 103 -1 c82 0 109 3 132 18
34 20 39 42 13 53 -23 8 -189 15 -226 8z"/>
<path d="M4409 833 c-130 -3 -147 -6 -151 -21 -13 -49 32 -81 88 -63 46 15
202 21 232 10 54 -21 105 18 82 61 -9 16 -20 20 -58 18 -26 -1 -113 -4 -193
-5z"/>
<path d="M13876 833 c-26 -4 -28 -7 -22 -35 3 -17 11 -37 17 -45 18 -21 82
-16 114 9 25 19 30 20 59 8 17 -8 63 -14 101 -14 65 -1 70 1 73 21 2 12 -2 31
-8 42 -10 20 -19 21 -158 20 -81 -1 -160 -4 -176 -6z"/>
<path d="M16700 823 c-78 -12 -84 -19 -50 -53 26 -26 54 -25 98 2 l35 21 -23
19 c-12 10 -25 17 -29 17 -3 -1 -17 -3 -31 -6z"/>
<path d="M15737 808 c-2 -7 -1 -23 4 -35 15 -40 109 -25 109 16 0 11 -7 22
-16 25 -28 11 -92 6 -97 -6z"/>
<path d="M15903 813 c-7 -2 -13 -13 -13 -24 0 -22 35 -39 80 -39 23 0 31 6 36
24 3 14 3 30 -1 35 -6 11 -79 14 -102 4z"/>
<path d="M16118 813 c-36 -9 -31 -59 7 -69 41 -10 60 -1 63 30 5 40 -19 53
-70 39z"/>
<path d="M16292 785 c3 -28 6 -30 50 -33 38 -2 50 1 59 16 12 19 13 19 43 1
19 -12 50 -19 78 -19 39 0 50 4 64 25 8 13 13 28 10 34 -4 5 -69 9 -157 8
l-150 -1 3 -31z"/>
<path d="M17248 789 c-25 -14 -22 -28 8 -39 32 -12 64 3 64 30 0 15 -7 20 -27
20 -16 0 -36 -5 -45 -11z"/>
<path d="M4780 520 c-24 -24 -24 -30 -7 -54 29 -40 127 -13 127 35 0 40 -86
53 -120 19z"/>
<path d="M5019 514 c-14 -39 12 -64 66 -64 46 0 65 13 65 45 0 33 -20 45 -72
45 -43 0 -50 -3 -59 -26z"/>
<path d="M5315 531 c-32 -5 -41 -11 -43 -29 -6 -40 14 -52 87 -51 80 1 111 9
125 32 8 12 7 20 -4 31 -18 16 -109 26 -165 17z"/>
<path d="M5743 530 c-17 -7 -23 -18 -23 -39 0 -23 5 -32 23 -36 12 -3 351 -4
752 -1 402 2 746 4 765 4 19 0 1159 -2 2532 -4 2240 -3 2499 -2 2513 12 20 21
19 51 -4 63 -24 13 -6526 14 -6558 1z"/>
<path d="M12457 533 c-14 -13 -6 -61 13 -78 15 -14 29 -16 62 -11 69 11 104
61 59 86 -22 11 -124 14 -134 3z"/>
<path d="M12740 519 c-9 -16 -8 -26 4 -45 23 -33 58 -40 103 -17 73 35 48 83
-44 83 -43 0 -54 -4 -63 -21z"/>
<path d="M13027 525 c-20 -19 -21 -29 -7 -56 14 -25 70 -25 101 0 l24 20 -20
20 c-29 29 -77 37 -98 16z"/>
<path d="M4560 480 c0 -19 11 -26 23 -14 8 8 -3 34 -14 34 -5 0 -9 -9 -9 -20z"/>
</g>
</svg>
