<svg xmlns="http://www.w3.org/2000/svg" version="1.1" xmlns:xlink="http://www.w3.org/1999/xlink" xmlns:svgjs="http://svgjs.dev/svgjs" width="1000" height="1000" viewBox="0 0 1000 1000"><rect width="1000" height="1000" fill="#636365"></rect><g transform="matrix(0.7,0,0,0.7,149.5757692974505,290.7097986693716)"><svg viewBox="0 0 396 237" data-background-color="#636365" preserveAspectRatio="xMidYMid meet" height="598" width="1000" xmlns="http://www.w3.org/2000/svg" xmlns:xlink="http://www.w3.org/1999/xlink"><g id="tight-bounds" transform="matrix(1,0,0,1,0.23999336887084155,-0.00553477612126585)"><svg viewBox="0 0 395.52 237.01108251773866" height="237.01108251773866" width="395.52"><g><svg viewBox="0 0 395.52 237.01108251773866" height="237.01108251773866" width="395.52"><g transform="matrix(1,0,0,1,0,146.4823574090181)"><svg viewBox="0 0 395.52 90.52872510872054" height="90.52872510872054" width="395.52"><g id="textblocktransform"><svg viewBox="0 0 395.52 90.52872510872054" height="90.52872510872054" width="395.52" id="textblock"><g><svg viewBox="0 0 395.52 90.52872510872054" height="90.52872510872054" width="395.52"><g transform="matrix(1,0,0,1,0,0)"><svg width="395.52" viewBox="1.25 -36 218.42999267578125 50" height="90.52872510872054" data-palette-color="#ffffff"><path d="M10.5 4.35L10.5 4.35Q9.95 4.35 9.22 4.17 8.5 4 7.8 3.58 7.1 3.15 6.65 2.38 6.2 1.6 6.2 0.35L6.2 0.35Q6.2-1.4 7.05-4.28 7.9-7.15 9-10.65L9-10.65Q9.85-13.35 10.65-16.25 11.45-19.15 11.98-22.05 12.5-24.95 12.5-27.6L12.5-27.6Q12.5-29.45 12.38-31.05 12.25-32.65 11.63-33.63 11-34.6 9.5-34.6L9.5-34.6Q8.1-34.6 7.13-33.77 6.15-32.95 5.53-31.65 4.9-30.35 4.63-28.9 4.35-27.45 4.35-26.2L4.35-26.2Q4.35-24.55 4.8-23.5L4.8-23.5Q2.85-23.5 2.05-24.58 1.25-25.65 1.25-27.1L1.25-27.1Q1.25-28.65 1.98-30.2 2.7-31.75 3.98-33.08 5.25-34.4 6.9-35.2 8.55-36 10.4-36L10.4-36Q13.5-36 15.03-33.58 16.55-31.15 16.55-27.1L16.55-27.1Q16.55-23.45 15.53-19.38 14.5-15.3 13.25-11.45L13.25-11.45Q12.45-8.95 11.73-6.68 11-4.4 10.55-2.5 10.1-0.6 10.1 0.85L10.1 0.85Q10.1 1.8 10.4 2.3 10.7 2.8 11.6 2.8L11.6 2.8Q12.85 2.8 14.38 1.63 15.9 0.45 17.48-1.55 19.05-3.55 20.53-5.98 22-8.4 23.23-10.95 24.45-13.5 25.28-15.8 26.1-18.1 26.3-19.75L26.3-19.75Q27.95-19.75 28.63-18.9 29.3-18.05 29.3-17.3L29.3-17.3Q29.3-16.5 28.65-14.85 28-13.2 27.1-11.15L27.1-11.15Q26.35-9.35 25.58-7.3 24.8-5.25 24.28-3.2 23.75-1.15 23.75 0.7L23.75 0.7Q23.75 1.65 24 2.23 24.25 2.8 25.15 2.8L25.15 2.8Q26.55 2.8 28.4 1.38 30.25-0.05 32.23-2.53 34.2-5 36.08-8.1 37.95-11.2 39.45-14.58 40.95-17.95 41.85-21.2 42.75-24.45 42.75-27.2L42.75-27.2Q42.75-29.7 42-30.88 41.25-32.05 40-32.4L40-32.4Q40.7-33.6 41.48-34.15 42.25-34.7 42.9-34.7L42.9-34.7Q43.95-34.7 44.95-33.35 45.95-32 45.95-29.15L45.95-29.15Q45.95-26.4 44.93-22.9 43.9-19.4 42.15-15.63 40.4-11.85 38.15-8.3 35.9-4.75 33.45-1.9 31 0.95 28.6 2.65 26.2 4.35 24.15 4.35L24.15 4.35Q23.2 4.35 22.2 3.95 21.2 3.55 20.53 2.73 19.85 1.9 19.85 0.6L19.85 0.6Q19.85-0.15 20.13-1.33 20.4-2.5 20.85-3.9L20.85-3.9Q18.3-0.3 15.63 2.02 12.95 4.35 10.5 4.35ZM46.9 1.9L46.9 1.9Q45.95 1.9 45.4 0.3 44.85-1.3 44.85-3.3L44.85-3.3Q44.85-5.7 45.65-9 46.45-12.3 47.75-15.95 49.05-19.6 50.67-23.1 52.3-26.6 54-29.45 55.7-32.3 57.2-34 58.7-35.7 59.8-35.7L59.8-35.7Q60.7-35.7 61.07-34.63 61.45-33.55 61.45-32.55L61.45-32.55Q61.45-31.15 60.82-29.15 60.2-27.15 59.1-24.88 58-22.6 56.55-20.4 55.1-18.2 53.4-16.38 51.7-14.55 49.95-13.5L49.95-13.5Q49.35-12.05 48.92-10.25 48.5-8.45 48.3-6.73 48.1-5 48.1-3.65L48.1-3.65Q48.1-3.1 48.12-2.7 48.15-2.3 48.2-1.95L48.2-1.95Q48.9-4 49.72-5.93 50.55-7.85 51.5-9.47 52.45-11.1 53.52-12.33 54.6-13.55 55.8-14.23 57-14.9 58.35-14.9L58.35-14.9Q59.75-14.9 60.57-14.23 61.4-13.55 61.77-12.53 62.15-11.5 62.15-10.4L62.15-10.4Q62.15-8.85 61.62-7.4 61.1-5.95 60.55-4.6 60-3.25 60-2L60-2Q60-1 60.42-0.55 60.85-0.1 61.5-0.1L61.5-0.1Q62.65-0.1 64.07-1.2 65.5-2.3 66.9-4.13 68.3-5.95 69.3-8.1L69.3-8.1 69.95-7.5Q68.9-5.05 67.4-3.08 65.9-1.1 64.1 0.05 62.3 1.2 60.35 1.2L60.35 1.2Q58.65 1.2 57.77 0.3 56.9-0.6 56.9-1.95L56.9-1.95Q56.9-3 57.3-4.3 57.7-5.6 58.07-6.95 58.45-8.3 58.45-9.5L58.45-9.5Q58.45-10.8 57.9-11.35 57.35-11.9 56.55-11.9L56.55-11.9Q55.3-11.9 54.3-10.9 53.3-9.9 52.47-8.33 51.65-6.75 50.92-5 50.2-3.25 49.55-1.68 48.9-0.1 48.25 0.9 47.6 1.9 46.9 1.9ZM50.6-15.45L50.6-15.45Q52-16.55 53.32-18.25 54.65-19.95 55.8-21.88 56.95-23.8 57.85-25.65 58.75-27.5 59.25-29 59.75-30.5 59.75-31.25L59.75-31.25Q59.75-31.5 59.7-31.58 59.65-31.65 59.55-31.65L59.55-31.65Q59.2-31.65 58.12-30.28 57.05-28.9 55.65-26.6 54.25-24.3 52.9-21.4 51.55-18.5 50.6-15.45ZM71.95 1.3L71.95 1.3Q70 1.3 69.05 0.08 68.1-1.15 68.1-2.9L68.1-2.9Q68.1-4.05 68.52-5.8 68.95-7.55 69.65-9.47 70.35-11.4 71.27-13.1 72.2-14.8 73.25-15.88 74.3-16.95 75.3-16.95L75.3-16.95Q75.75-16.95 76.07-16.68 76.4-16.4 76.4-15.85L76.4-15.85Q76.4-15.25 75.62-13.9 74.85-12.55 73.8-10.8 72.75-9.05 71.97-7.13 71.2-5.2 71.2-3.45L71.2-3.45Q71.2-1.65 71.8-1.05 72.4-0.45 73.65-0.45L73.65-0.45Q75.35-0.45 77.27-2.15 79.2-3.85 81.35-8.1L81.35-8.1 81.8-7.6Q80.35-3.3 77.62-1 74.9 1.3 71.95 1.3ZM77.95-21.6L77.95-21.6Q77.15-21.6 76.52-22 75.9-22.4 75.9-23.25L75.9-23.25Q75.9-24.3 77.12-25.08 78.35-25.85 79.55-25.85L79.55-25.85Q80.3-25.85 80.75-25.5 81.2-25.15 81.2-24.3L81.2-24.3Q81.2-23.35 80.17-22.48 79.15-21.6 77.95-21.6ZM84.64 2.3L84.64 2.3Q82.49 2.3 81.34 1.05 80.19-0.2 80.19-2.65L80.19-2.65Q80.19-4.85 81.02-8.08 81.84-11.3 83.09-14.7L83.09-14.7Q82.59-14.8 82.14-14.88 81.69-14.95 81.29-15.1L81.29-15.1 81.29-16Q81.69-15.95 82.24-15.9 82.79-15.85 83.49-15.8L83.49-15.8Q84.54-18.5 85.74-21.03 86.94-23.55 88.12-25.53 89.29-27.5 90.37-28.68 91.44-29.85 92.19-29.85L92.19-29.85Q92.59-29.85 92.92-29.58 93.24-29.3 93.24-28.75L93.24-28.75Q93.24-27.9 92.19-25.98 91.14-24.05 89.59-21.4 88.04-18.75 86.59-15.65L86.59-15.65Q87.04-15.65 87.52-15.65 87.99-15.65 88.44-15.65L88.44-15.65Q90.09-15.65 91.92-15.7 93.74-15.75 95.59-15.95L95.59-15.95 95.59-15.05Q92.84-14.75 90.67-14.6 88.49-14.45 86.79-14.45L86.79-14.45Q86.59-14.45 86.42-14.45 86.24-14.45 86.04-14.45L86.04-14.45Q84.89-11.8 84.09-9 83.29-6.2 83.29-3.55L83.29-3.55Q83.29-1.4 83.94-0.48 84.59 0.45 86.09 0.45L86.09 0.45Q88.69 0.45 91.19-1.85 93.69-4.15 95.59-8.1L95.59-8.1 96.24-7.6Q95.04-4.8 93.22-2.55 91.39-0.3 89.19 1 86.99 2.3 84.64 2.3ZM100.04 2.2L100.04 2.2Q96.99 2.2 95.47 0.53 93.94-1.15 93.94-3.6L93.94-3.6Q93.94-5.85 95.07-8.35 96.19-10.85 98.07-13.05 99.94-15.25 102.19-16.63 104.44-18 106.64-18L106.64-18Q107.79-18 108.77-17.4 109.74-16.8 109.74-14.95L109.74-14.95Q109.74-13.05 108.62-11.38 107.49-9.7 105.67-8.4 103.84-7.1 101.67-6.28 99.49-5.45 97.34-5.25L97.34-5.25Q97.24-4.75 97.19-4.3 97.14-3.85 97.14-3.45L97.14-3.45Q97.14-2.7 97.32-1.95 97.49-1.2 97.94-0.58 98.39 0.05 99.17 0.4 99.94 0.75 101.09 0.75L101.09 0.75Q103.24 0.75 105.34-0.48 107.44-1.7 109.24-3.7 111.04-5.7 112.29-8.1L112.29-8.1 112.89-7.65Q111.54-4.65 109.47-2.45 107.39-0.25 104.97 0.98 102.54 2.2 100.04 2.2ZM97.59-6.2L97.59-6.2Q98.94-6.65 100.64-7.53 102.34-8.4 103.92-9.6 105.49-10.8 106.52-12.25 107.54-13.7 107.54-15.3L107.54-15.3Q107.54-15.85 107.34-16.15 107.14-16.45 106.49-16.45L106.49-16.45Q105.29-16.45 103.94-15.53 102.59-14.6 101.34-13.1 100.09-11.6 99.09-9.8 98.09-8 97.59-6.2ZM110.64 14L110.64 14Q110.14 14 109.49 13.68 108.84 13.35 108.36 12.4 107.89 11.45 107.89 9.6L107.89 9.6Q107.89 7.4 108.64 3.88 109.39 0.35 110.69-3.9 111.99-8.15 113.69-12.63 115.39-17.1 117.36-21.28 119.34-25.45 121.41-28.78 123.49-32.1 125.49-34.05 127.49-36 129.29-36L129.29-36Q130.34-36 130.66-35.35 130.99-34.7 130.99-33.8L130.99-33.8Q130.99-31.65 129.81-29.1 128.64-26.55 126.69-23.98 124.74-21.4 122.39-19.07 120.04-16.75 117.64-15.1L117.64-15.1Q117.39-14.5 117.16-13.88 116.94-13.25 116.69-12.6L116.69-12.6Q117.24-12.5 117.56-12.03 117.89-11.55 117.94-11L117.94-11Q118.29-8.75 118.69-6.98 119.09-5.2 119.91-4.2 120.74-3.2 122.29-3.2L122.29-3.2Q124.04-3.2 125.24-4.48 126.44-5.75 127.84-8.1L127.84-8.1 128.59-7.6Q127.34-4.6 125.41-3.25 123.49-1.9 122.04-1.9L122.04-1.9Q121.14-1.9 120.16-2.35 119.19-2.8 118.34-3.55L118.34-3.55Q118.34-0.4 117.66 2.7 116.99 5.8 115.89 8.35 114.79 10.9 113.44 12.45 112.09 14 110.64 14ZM111.94 11.6L111.94 11.6Q112.49 11.6 113.19 10.6 113.89 9.6 114.56 7.98 115.24 6.35 115.79 4.4 116.34 2.45 116.69 0.5 117.04-1.45 117.04-3L117.04-3Q117.04-4.55 116.64-5.83 116.24-7.1 115.34-8.85L115.34-8.85Q114.09-5.1 113.09-1.6 112.09 1.9 111.54 4.7 110.99 7.5 110.99 9.2L110.99 9.2Q110.99 11.6 111.94 11.6ZM118.44-17.15L118.44-17.15Q121.69-20.15 124.06-23.18 126.44-26.2 127.74-28.58 129.04-30.95 129.04-31.95L129.04-31.95Q129.04-32.65 128.34-32.65L128.34-32.65Q127.04-32.65 125.39-30.53 123.74-28.4 121.94-24.9 120.14-21.4 118.44-17.15ZM129.29 2.35L129.29 2.35Q127.74 2.35 126.66 1.33 125.59 0.3 125.59-1.8L125.59-1.8Q125.59-3.6 126.39-5.68 127.19-7.75 128.59-9.78 129.99-11.8 131.76-13.48 133.54-15.15 135.51-16.15 137.49-17.15 139.44-17.15L139.44-17.15Q141.39-17.15 142.69-16.13 143.99-15.1 143.99-13.4L143.99-13.4Q143.99-12.15 143.31-11.7 142.64-11.25 141.54-11.25L141.54-11.25Q141.64-11.65 141.71-12.13 141.79-12.6 141.79-13L141.79-13Q141.79-14.15 141.24-14.98 140.69-15.8 139.34-15.8L139.34-15.8Q137.94-15.8 136.49-14.83 135.04-13.85 133.69-12.23 132.34-10.6 131.29-8.7 130.24-6.8 129.64-4.95 129.04-3.1 129.04-1.65L129.04-1.65Q129.04 0.3 130.39 0.3L130.39 0.3Q131.54 0.3 132.89-0.78 134.24-1.85 135.66-3.53 137.09-5.2 138.39-7 139.69-8.8 140.69-10.3L140.69-10.3Q140.89-10.6 140.94-10.6L140.94-10.6Q141.24-10.55 141.71-10.4 142.19-10.25 142.54-10 142.89-9.75 142.89-9.35L142.89-9.35Q142.89-8.9 142.44-8.13 141.99-7.35 141.44-6.35 140.89-5.35 140.44-4.33 139.99-3.3 139.99-2.4L139.99-2.4Q139.99-1.65 140.39-0.93 140.79-0.2 141.69-0.2L141.69-0.2Q143.04-0.2 145.24-2.18 147.44-4.15 149.69-8.1L149.69-8.1 150.19-7.6Q149.14-4.9 147.49-2.85 145.84-0.8 143.96 0.35 142.09 1.5 140.29 1.5L140.29 1.5Q138.44 1.5 137.56 0.4 136.69-0.7 136.69-2L136.69-2Q136.69-2.3 136.74-2.68 136.79-3.05 136.84-3.45L136.84-3.45Q134.69-0.55 132.91 0.9 131.14 2.35 129.29 2.35ZM152.83 1.5L152.83 1.5Q150.68 1.5 149.76 0.03 148.83-1.45 148.83-3.65L148.83-3.65Q148.83-6.05 149.73-9.35 150.63-12.65 152.11-16.3 153.58-19.95 155.33-23.43 157.08-26.9 158.83-29.75 160.58-32.6 162.06-34.3 163.53-36 164.38-36L164.38-36Q164.93-36 165.28-35.38 165.63-34.75 165.83-33.88 166.03-33 166.03-32.3L166.03-32.3Q166.03-30.95 165.36-28.78 164.68-26.6 163.46-23.93 162.23-21.25 160.56-18.53 158.88-15.8 156.91-13.3 154.93-10.8 152.73-9L152.73-9Q152.43-7.65 152.26-6.38 152.08-5.1 152.08-3.95L152.08-3.95Q152.08-2 152.63-1.05 153.18-0.1 154.28-0.1L154.28-0.1Q155.63-0.1 156.96-1.3 158.28-2.5 159.46-4.33 160.63-6.15 161.48-8.1L161.48-8.1 162.23-7.7Q160.23-3.45 157.88-0.98 155.53 1.5 152.83 1.5ZM153.18-10.7L153.18-10.7Q154.93-12.45 156.58-14.73 158.23-17 159.66-19.45 161.08-21.9 162.18-24.2 163.28-26.5 163.88-28.33 164.48-30.15 164.48-31.15L164.48-31.15Q164.48-31.65 164.36-31.8 164.23-31.95 164.13-31.95L164.13-31.95Q163.73-31.95 162.76-30.68 161.78-29.4 160.48-27.25 159.18-25.1 157.83-22.35 156.48-19.6 155.26-16.6 154.03-13.6 153.18-10.7ZM165.83 2.8L165.83 2.8Q163.43 2.8 161.83 1.2 160.23-0.4 160.23-3.6L160.23-3.6Q160.23-6.1 161.21-8.47 162.18-10.85 163.78-12.75 165.38-14.65 167.33-15.78 169.28-16.9 171.18-16.9L171.18-16.9Q173.23-16.9 173.98-15.7 174.73-14.5 174.73-13.2L174.73-13.2Q174.73-11.75 174.06-10.65 173.38-9.55 172.23-9.55L172.23-9.55Q171.38-9.55 170.78-10.3L170.78-10.3Q171.53-10.7 172.08-11.93 172.63-13.15 172.63-14.25L172.63-14.25Q172.63-14.85 172.41-15.18 172.18-15.5 171.53-15.5L171.53-15.5Q170.18-15.5 168.76-14.3 167.33-13.1 166.11-11.2 164.88-9.3 164.11-7.2 163.33-5.1 163.33-3.25L163.33-3.25Q163.33-1.7 164.08-0.4 164.83 0.9 166.98 0.9L166.98 0.9Q168.98 0.9 171.01-0.2 173.03-1.3 174.78-3.35 176.53-5.4 177.58-8.15L177.58-8.15 178.23-7.65Q177.08-4.65 175.08-2.27 173.08 0.1 170.68 1.45 168.28 2.8 165.83 2.8ZM180.08 1.6L180.08 1.6Q177.93 1.6 177.03 0.28 176.13-1.05 176.13-2.95L176.13-2.95Q176.13-4.5 176.63-6.15 177.13-7.8 177.95-9.25 178.78-10.7 179.8-11.6 180.83-12.5 181.88-12.5L181.88-12.5Q182.13-12.5 182.4-12.43 182.68-12.35 182.93-12.25L182.93-12.25Q182.48-11.85 181.85-10.78 181.23-9.7 180.68-8.33 180.13-6.95 179.75-5.6 179.38-4.25 179.38-3.3L179.38-3.3Q179.38-1.8 179.88-1.13 180.38-0.45 181.18-0.45L181.18-0.45Q182.23-0.45 183.68-1.58 185.13-2.7 186.53-4.45L186.53-4.45Q185.13-5.6 184.35-7.48 183.58-9.35 183.58-11.3L183.58-11.3Q183.58-12.95 184.15-14.4 184.73-15.85 185.83-16.73 186.93-17.6 188.48-17.6L188.48-17.6Q190.53-17.6 191.23-16.5 191.93-15.4 191.93-13.75L191.93-13.75Q191.93-11.8 190.98-9.43 190.03-7.05 188.58-4.85L188.58-4.85Q189.48-4.35 190.48-4.35L190.48-4.35Q191.28-4.35 192.28-4.67 193.28-5 194.25-5.8 195.23-6.6 195.83-7.95L195.83-7.95 196.43-7.45Q195.43-5.1 193.6-4.13 191.78-3.15 190.13-3.15L190.13-3.15Q189.48-3.15 188.88-3.28 188.28-3.4 187.73-3.65L187.73-3.65Q186.03-1.4 184 0.1 181.98 1.6 180.08 1.6ZM187.43-5.75L187.43-5.75Q188.68-7.6 189.5-9.63 190.33-11.65 190.33-13.45L190.33-13.45Q190.33-14.9 189.9-15.58 189.48-16.25 188.83-16.25L188.83-16.25Q187.83-16.25 186.78-14.8 185.73-13.35 185.73-11.15L185.73-11.15Q185.73-9.7 186.15-8.22 186.58-6.75 187.43-5.75ZM211.03 1L211.03 1Q209.28 1 208.4 0.1 207.53-0.8 207.53-2.2L207.53-2.2Q207.53-3.25 207.9-4.4 208.28-5.55 208.63-6.78 208.98-8 208.98-9.15L208.98-9.15Q208.98-10.55 208.4-11.08 207.83-11.6 206.98-11.6L206.98-11.6Q205.43-11.6 203.83-10.33 202.23-9.05 200.73-7.08 199.23-5.1 197.93-3 196.63-0.9 195.63 0.75L195.63 0.75Q194.83 0.75 194.1 0.48 193.38 0.2 192.98-0.35L192.98-0.35Q192.98-0.6 193.5-1.9 194.03-3.2 194.73-5.1 195.43-7 195.98-9 196.53-11 196.53-12.65L196.53-12.65Q196.83-13 197.48-13.35 198.13-13.7 198.83-13.7L198.83-13.7Q200.18-13.7 200.18-12.4L200.18-12.4Q200.18-11.6 199.73-9.73 199.28-7.85 198.58-5.8L198.58-5.8Q199.93-7.85 201.6-9.88 203.28-11.9 205.18-13.25 207.08-14.6 208.98-14.6L208.98-14.6Q210.93-14.6 211.8-13.2 212.68-11.8 212.68-10.1L212.68-10.1Q212.68-8.55 212.18-7.23 211.68-5.9 211.15-4.67 210.63-3.45 210.63-2.2L210.63-2.2Q210.63-1.15 211.05-0.73 211.48-0.3 212.13-0.3L212.13-0.3Q213.38-0.3 214.63-1.48 215.88-2.65 217.05-4.45 218.23-6.25 219.13-8.1L219.13-8.1 219.68-7.45Q218.63-5 217.33-3.1 216.03-1.2 214.48-0.1 212.93 1 211.03 1Z" opacity="1" transform="matrix(1,0,0,1,0,0)" fill="#ffffff" class="undefined-text-0" data-fill-palette-color="primary" id="text-0"></path></svg></g></svg></g></svg></g></svg></g><g transform="matrix(1,0,0,1,127.90114729929864,0)"><svg viewBox="0 0 139.7177054014027 125.1106981002518" height="125.1106981002518" width="139.7177054014027"><g><svg xmlns="http://www.w3.org/2000/svg" xmlns:xlink="http://www.w3.org/1999/xlink" version="1.0" x="8" y="0" viewBox="5.405647277832031 5.863276481628418 87.14336395263672 88.12454986572266" enable-background="new 0 0 100 100" xml:space="preserve" height="125.1106981002518" width="123.7177054014027" class="icon-icon-0" data-fill-palette-color="accent" id="icon-0"><path d="M86.08 89.953c-3.523-0.07-4.725 1.266-6.867 1.4s-8.129-4.906-9.766-15.783c-1.652-10.984 3.467-24.642 4.544-25.901 7.094-7.267 10.302-17.166 11.077-19.139-7.271-5.294 0.525-19.012 5.223-13.28 1.224-4.792-8.35-15.605-21.758-9.634-5.245 3.57-5.624 11.837-5.624 11.837s-9.936 7.118-16.598 16.159c-6.662 9.042-25.043 35.651-29.374 39.88-4.331 4.225-8.654 4.078-10.974 9.5-2.32 5.424 3.142 3.203 6.481 1.961-1.49 2.494-2.185 3.197-1.081 5.322 1.289 2.486 6.319 2.094 10.981-0.072 4.662-2.166 10.865-17.303 15.941-21.848 6.682-5.979 9.163 7.131 9.163 7.131s3.093-4.533 9.755-3.695c-1.358 4.756-1.523 12.363-1.706 15.459-1.532 0.098-4.115 4.598-2.316 4.633 1.799 0.029 7.138-0.178 14.664-0.178h24.704C92.549 93.705 89.604 90.025 86.08 89.953zM68.806 88.479l-2.748 4.262c-6.839-2-4.65-10.748-2.903-17.787 0.994 0.602 1.911 1.436 2.695 2.617C70.494 84.58 68.806 88.479 68.806 88.479z" fill="#ffffff" data-fill-palette-color="accent"></path></svg></g></svg></g><g><rect width="127.90114729929864" height="8.163973855948731" y="115.94672424430307" x="267.6188527007013" fill="#ffffff" data-fill-palette-color="accent"></rect><rect width="127.90114729929864" height="8.163973855948731" y="115.94672424430307" x="0" fill="#ffffff" data-fill-palette-color="accent"></rect><rect width="127.90114729929864" height="8.163973855948731" y="99.6187765324056" x="267.6188527007013" fill="#ffffff" data-fill-palette-color="accent"></rect><rect width="127.90114729929864" height="8.163973855948731" y="99.6187765324056" x="0" fill="#ffffff" data-fill-palette-color="accent"></rect></g></svg></g><defs></defs></svg><rect width="395.52" height="237.01108251773866" fill="none" stroke="none" visibility="hidden"></rect></g></svg></g></svg>